<svg width="27" height="27" viewBox="0 0 27 27" fill="none" xmlns="http://www.w3.org/2000/svg">
<path d="M21.7688 11.295C21.0037 7.41375 17.595 4.5 13.5 4.5C10.2487 4.5 7.425 6.345 6.01875 9.045C2.6325 9.405 0 12.2738 0 15.75C0 19.4738 3.02625 22.5 6.75 22.5H21.375C24.48 22.5 27 19.98 27 16.875C27 13.905 24.6938 11.4975 21.7688 11.295ZM21.375 20.25H6.75C4.26375 20.25 2.25 18.2362 2.25 15.75C2.25 13.2638 4.26375 11.25 6.75 11.25H7.54875C8.29125 8.65125 10.665 6.75 13.5 6.75C16.92 6.75 19.6875 9.5175 19.6875 12.9375V13.5H21.375C23.2425 13.5 24.75 15.0075 24.75 16.875C24.75 18.7425 23.2425 20.25 21.375 20.25Z" fill="#383838"/>
</svg>
