<svg width="27" height="27" viewBox="0 0 27 27" fill="none" xmlns="http://www.w3.org/2000/svg">
<path d="M22.947 6.82148C22.5886 6.46315 22.0261 6.41031 21.6071 6.69576C20.029 7.77144 12.1134 13.1805 11.2627 14.0311C10.029 15.2648 10.029 17.2721 11.2627 18.5058C11.8795 19.1226 12.6898 19.4311 13.5 19.4311C14.3102 19.4311 15.1205 19.1226 15.7374 18.5058C16.588 17.6551 21.997 9.73949 23.0727 8.16136C23.3581 7.74249 23.3053 7.17992 22.947 6.82148ZM14.2457 17.0142C13.8346 17.4255 13.1654 17.4255 12.7542 17.0142C12.343 16.6031 12.343 15.9341 12.754 15.5229C13.0846 15.1963 15.332 13.5935 18.097 11.6715C16.1751 14.4365 14.5723 16.6838 14.2457 17.0142Z" fill="#383838"/>
<path d="M4.86374 21.1741L3.56173 21.8092C2.60903 20.1089 2.10938 18.2112 2.10938 16.2685C2.10938 14.8451 2.37183 13.4819 2.85082 12.2247L4.34273 12.9403C4.48986 13.0108 4.64516 13.0443 4.79814 13.0443C5.19117 13.0443 5.56849 12.8236 5.74984 12.4455C6.0017 11.9203 5.78021 11.2903 5.25498 11.0384L3.782 10.3318C5.61278 7.346 8.78038 5.26431 12.4454 4.92628V6.51258C12.4454 7.09509 12.9175 7.56727 13.5001 7.56727C14.0826 7.56727 14.5547 7.09509 14.5547 6.51258V4.92549C15.8113 5.03987 17.0271 5.35986 18.1813 5.88088C18.7121 6.12055 19.3369 5.88436 19.5765 5.35359C19.8162 4.82266 19.5801 4.19802 19.0492 3.95834C17.3002 3.16885 15.4332 2.76849 13.5 2.76849C9.89402 2.76849 6.50389 4.1727 3.95402 6.72252C1.40426 9.27238 0 12.6625 0 16.2685C0 18.9332 0.79091 21.5247 2.28725 23.7628C2.4888 24.0642 2.82203 24.2314 3.1647 24.2314C3.32047 24.2314 3.47825 24.1969 3.62649 24.1246L5.7886 23.0699C6.31215 22.8145 6.52952 22.1831 6.27413 21.6596C6.01873 21.1361 5.38729 20.9188 4.86374 21.1741Z" fill="#383838"/>
<path d="M25.8101 10.7193C25.5705 10.1884 24.946 9.9522 24.4149 10.192C23.884 10.4317 23.6479 11.0563 23.8876 11.5872C24.5532 13.0615 24.8907 14.6365 24.8907 16.2685C24.8907 18.214 24.3894 20.1149 23.4339 21.8171L22.0745 21.1697C21.5487 20.9194 20.9193 21.1426 20.6689 21.6686C20.4184 22.1944 20.6418 22.8238 21.1677 23.0743L23.3825 24.1289C23.5282 24.1983 23.6827 24.2315 23.8354 24.2315C24.1782 24.2315 24.5115 24.064 24.7127 23.7629C26.2091 21.5247 27 18.9331 27 16.2685C27 14.3353 26.5997 12.4683 25.8101 10.7193Z" fill="#383838"/>
</svg>
