<svg width="23" height="23" viewBox="0 0 23 23" fill="none" xmlns="http://www.w3.org/2000/svg">
<path fill-rule="evenodd" clip-rule="evenodd" d="M19.1667 4.79167H18.0447C17.6501 3.67503 16.5851 2.875 15.3333 2.875C14.0816 2.875 13.0166 3.67503 12.6219 4.79167H3.83333C3.30406 4.79167 2.875 5.22073 2.875 5.75C2.875 6.27927 3.30406 6.70833 3.83333 6.70833H12.6219C13.0166 7.82497 14.0816 8.625 15.3333 8.625C16.5851 8.625 17.6501 7.82497 18.0447 6.70833H19.1667C19.696 6.70833 20.125 6.27927 20.125 5.75C20.125 5.22073 19.696 4.79167 19.1667 4.79167ZM15.3333 6.70833C15.8626 6.70833 16.2917 6.27927 16.2917 5.75C16.2917 5.22073 15.8626 4.79167 15.3333 4.79167C14.804 4.79167 14.375 5.22073 14.375 5.75C14.375 6.27927 14.804 6.70833 15.3333 6.70833Z" fill="#99A0B0"/>
<path fill-rule="evenodd" clip-rule="evenodd" d="M2.875 11.5C2.875 10.9707 3.30406 10.5417 3.83333 10.5417H4.95526C5.34993 9.42503 6.41487 8.625 7.66667 8.625C8.91846 8.625 9.98344 9.42503 10.3781 10.5417H19.1667C19.696 10.5417 20.125 10.9707 20.125 11.5C20.125 12.0293 19.696 12.4583 19.1667 12.4583H10.3781C9.98344 13.575 8.91846 14.375 7.66667 14.375C6.41487 14.375 5.34993 13.575 4.95526 12.4583H3.83333C3.30406 12.4583 2.875 12.0293 2.875 11.5ZM7.66667 12.4583C8.19594 12.4583 8.625 12.0293 8.625 11.5C8.625 10.9707 8.19594 10.5417 7.66667 10.5417C7.1374 10.5417 6.70833 10.9707 6.70833 11.5C6.70833 12.0293 7.1374 12.4583 7.66667 12.4583Z" fill="#99A0B0"/>
<path fill-rule="evenodd" clip-rule="evenodd" d="M3.83333 16.2917C3.30406 16.2917 2.875 16.7207 2.875 17.25C2.875 17.7793 3.30406 18.2083 3.83333 18.2083H12.6219C13.0166 19.325 14.0816 20.125 15.3333 20.125C16.5851 20.125 17.6501 19.325 18.0447 18.2083H19.1667C19.696 18.2083 20.125 17.7793 20.125 17.25C20.125 16.7207 19.696 16.2917 19.1667 16.2917H18.0447C17.6501 15.175 16.5851 14.375 15.3333 14.375C14.0816 14.375 13.0166 15.175 12.6219 16.2917H3.83333ZM16.2917 17.25C16.2917 17.7793 15.8626 18.2083 15.3333 18.2083C14.804 18.2083 14.375 17.7793 14.375 17.25C14.375 16.7207 14.804 16.2917 15.3333 16.2917C15.8626 16.2917 16.2917 16.7207 16.2917 17.25Z" fill="#99A0B0"/>
</svg>
