<svg width="27" height="27" viewBox="0 0 27 27" fill="none" xmlns="http://www.w3.org/2000/svg">
<path d="M17.4375 15.75H16.5431L16.2338 15.4406C17.3363 14.1638 18 12.5044 18 10.6875C18 6.64875 14.7262 3.375 10.6875 3.375C6.64875 3.375 3.375 6.64875 3.375 10.6875C3.375 14.7262 6.64875 18 10.6875 18C12.5044 18 14.1638 17.3363 15.4406 16.2394L15.75 16.5487V17.4375L21.375 23.0513L23.0513 21.375L17.4375 15.75ZM10.6875 15.75C7.89188 15.75 5.625 13.4831 5.625 10.6875C5.625 7.89188 7.89188 5.625 10.6875 5.625C13.4831 5.625 15.75 7.89188 15.75 10.6875C15.75 13.4831 13.4831 15.75 10.6875 15.75Z" fill="#D1D5DE"/>
</svg>
