<svg width="95" height="105" viewBox="0 0 95 105" fill="none" xmlns="http://www.w3.org/2000/svg">
<path fill-rule="evenodd" clip-rule="evenodd" d="M95 37.5L47.6547 0L0 37.5V105H95V37.5Z" fill="#00847A"/>
<rect y="71.25" width="95" height="33.75" fill="#00847A"/>
<rect x="18.5063" y="9.25" width="57.366" height="61.5" rx="4.5" fill="#F5F8F7" stroke="#C3C2C2"/>
<rect x="25.4575" y="18.75" width="43.4641" height="2.5" rx="1.25" fill="#C3C2C2"/>
<rect x="25.4575" y="37.5" width="43.4641" height="2.5" rx="1.25" fill="#C3C2C2"/>
<rect x="25.9575" y="24.875" width="42.4641" height="9" rx="4.5" stroke="#C3C2C2"/>
<path d="M54.0195 71.1401L94.9999 37.5V105L54.0195 71.1401Z" fill="#1CAA9F"/>
<path d="M40.9805 71.3599L7.54595e-05 105L7.54595e-05 37.5L40.9805 71.3599Z" fill="#1CAA9F"/>
<path d="M31.0457 26.875L31.6033 28.6025H33.4078L31.9479 29.6701L32.5055 31.3975L31.0457 30.3299L29.5858 31.3975L30.1434 29.6701L28.6836 28.6025H30.4881L31.0457 26.875Z" fill="#1E1D1D"/>
<path d="M39.1174 26.875L39.6751 28.6025H41.4795L40.0197 29.6701L40.5773 31.3975L39.1174 30.3299L37.6576 31.3975L38.2152 29.6701L36.7553 28.6025H38.5598L39.1174 26.875Z" fill="#1E1D1D"/>
<path d="M47.1897 26.875L47.7473 28.6025H49.5518L48.092 29.6701L48.6496 31.3975L47.1897 30.3299L45.7299 31.3975L46.2875 29.6701L44.8276 28.6025H46.6321L47.1897 26.875Z" fill="#1E1D1D"/>
<path d="M55.2615 26.875L55.8191 28.6025H57.6236L56.1637 29.6701L56.7214 31.3975L55.2615 30.3299L53.8016 31.3975L54.3593 29.6701L52.8994 28.6025H54.7039L55.2615 26.875Z" fill="#1E1D1D"/>
<path d="M63.3333 26.875L63.8909 28.6025H65.6954L64.2355 29.6701L64.7931 31.3975L63.3333 30.3299L61.8734 31.3975L62.431 29.6701L60.9712 28.6025H62.7757L63.3333 26.875Z" fill="#1E1D1D"/>
</svg>
