<svg width="69" height="135" viewBox="0 0 69 135" fill="none" xmlns="http://www.w3.org/2000/svg">
<path d="M0.5 6C0.5 2.68629 3.18629 0 6.5 0H60.5C64.9183 0 68.5 3.58172 68.5 8V129C68.5 132.314 65.8137 135 62.5 135H8.5C4.08172 135 0.5 131.418 0.5 127V6Z" fill="#0B1A5B"/>
<rect x="0.5" width="66" height="133" rx="5" fill="#1F3AB2"/>
<rect x="2.5" y="6" width="62" height="116" rx="5" fill="#F5F8F7"/>
<rect x="24.5" y="125" width="18" height="5" rx="2.5" fill="#F5F8F7"/>
<rect x="24.5" y="3" width="18" height="1" rx="0.5" fill="#F5F8F7"/>
<path fill-rule="evenodd" clip-rule="evenodd" d="M46.5 49V58H42.8809C40.515 60.4653 37.1867 62 33.5 62C29.8133 62 26.485 60.4653 24.1191 58H20.5V49C20.5 41.8203 26.3203 36 33.5 36C40.6797 36 46.5 41.8203 46.5 49Z" fill="#0B1A5B"/>
<path fill-rule="evenodd" clip-rule="evenodd" d="M42.5 49C42.5 44.0294 38.4706 40 33.5 40C28.5294 40 24.5 44.0294 24.5 49V58H33.5H42.5V49Z" fill="#F5F8F7"/>
<rect x="14.5" y="58" width="38" height="34" rx="3" fill="#1F3AB2"/>
<path fill-rule="evenodd" clip-rule="evenodd" d="M35.5 74.2361C36.1137 73.6868 36.5 72.8885 36.5 72C36.5 70.3431 35.1569 69 33.5 69C31.8431 69 30.5 70.3431 30.5 72C30.5 72.8885 30.8863 73.6868 31.5 74.2361V80C31.5 81.1046 32.3954 82 33.5 82C34.6046 82 35.5 81.1046 35.5 80V74.2361Z" fill="#0B1A5B"/>
</svg>
