<svg width="193" height="36" viewBox="0 0 193 36" fill="none" xmlns="http://www.w3.org/2000/svg">
<path d="M18 2.11768C16.7146 2.11768 15.6337 3.02384 15.339 4.24175C12.3649 4.83641 9.6517 6.4262 7.63785 8.7704C5.44366 11.3245 4.23529 14.6023 4.23529 18C4.23529 18.514 4.64433 18.9306 5.14888 18.9306C5.65342 18.9306 6.06246 18.514 6.06246 18C6.06246 15.0533 7.11029 12.2108 9.01292 9.99607C10.7219 8.00674 13.0103 6.64328 15.5226 6.10229C15.9626 7.0466 16.9075 7.70132 18 7.70132C19.5113 7.70132 20.7408 6.44891 20.7408 4.9095C20.7408 3.37009 19.5113 2.11768 18 2.11768Z" fill="#0D2177"/>
<path d="M25.8303 16.3104C25.6094 16.1539 25.1891 15.9064 24.8895 15.7746L24.4164 14.6113C24.5332 14.3115 24.6608 13.8319 24.7097 13.5548C24.7627 13.2549 24.6681 12.9476 24.4566 12.7321L23.1716 11.4232C22.96 11.2077 22.6583 11.1113 22.364 11.1653C22.096 11.2144 21.6282 11.3422 21.3267 11.4641L20.1847 10.9822C20.0595 10.6868 19.8168 10.2553 19.6587 10.0238C19.4879 9.77365 19.2078 9.6245 18.9086 9.6245H17.0914C16.7923 9.6245 16.5121 9.77365 16.3413 10.0238C16.1877 10.2488 15.9447 10.677 15.8153 10.9822L14.6733 11.4641C14.379 11.3451 13.9082 11.2151 13.6361 11.1653C13.3419 11.1115 13.04 11.2078 12.8285 11.4232L11.5435 12.7321C11.332 12.9476 11.2374 13.2549 11.2903 13.5548C11.3385 13.8277 11.464 14.3042 11.5836 14.6113L11.1106 15.7746C10.8205 15.9021 10.3969 16.1494 10.1697 16.3104C9.92413 16.4844 9.77772 16.7698 9.77772 17.0744V18.9255C9.77772 19.2302 9.92413 19.5156 10.1697 19.6896C10.3906 19.8461 10.8109 20.0936 11.1106 20.2254L11.5836 21.3887C11.4669 21.6885 11.3392 22.1681 11.2903 22.4452C11.2374 22.7451 11.332 23.0524 11.5435 23.2679L12.8285 24.5768C13.04 24.7923 13.3415 24.8885 13.6361 24.8347C13.904 24.7856 14.3718 24.6578 14.6733 24.5359L15.8153 25.0178C15.9405 25.3132 16.1832 25.7447 16.3413 25.9762C16.5121 26.2263 16.7923 26.3755 17.0914 26.3755H18.9086C19.2078 26.3755 19.4879 26.2263 19.6587 25.9762C19.8124 25.7512 20.0553 25.323 20.1847 25.0178L21.3267 24.5359C21.621 24.6549 22.0919 24.7849 22.364 24.8347C22.6584 24.8886 22.96 24.7923 23.1716 24.5768L24.4566 23.2679C24.6681 23.0524 24.7627 22.7451 24.7097 22.4452C24.6616 22.1723 24.536 21.6958 24.4164 21.3887L24.8895 20.2254C25.1795 20.0979 25.6031 19.8506 25.8303 19.6896C26.0759 19.5156 26.2223 19.2302 26.2223 18.9255V17.0744C26.2223 16.7698 26.0759 16.4844 25.8303 16.3104ZM18 21.7225C15.985 21.7225 14.3456 20.0526 14.3456 18.0001C14.3456 15.9475 15.985 14.2777 18 14.2777C20.015 14.2777 21.6543 15.9475 21.6543 18.0001C21.6543 20.0526 20.015 21.7225 18 21.7225Z" fill="#0D2177"/>
<path d="M30.8511 17.0694C30.3466 17.0694 29.9375 17.4861 29.9375 18C29.9375 20.9468 28.8897 23.7893 26.9871 26.004C25.2781 27.9933 22.9897 29.3568 20.4774 29.8978C20.0374 28.9535 19.0925 28.2987 18 28.2987C16.4887 28.2987 15.2592 29.5512 15.2592 31.0906C15.2592 32.63 16.4887 33.8824 18 33.8824C19.2854 33.8824 20.3663 32.9762 20.661 31.7583C23.6351 31.1636 26.3483 29.5739 28.3621 27.2297C30.5563 24.6756 31.7647 21.3977 31.7647 18C31.7647 17.4861 31.3557 17.0694 30.8511 17.0694Z" fill="#0D2177"/>
<path d="M58.1592 11.748C58.1592 12.3291 58.0127 12.8809 57.7197 13.4033C57.4268 13.9209 56.9702 14.3408 56.3501 14.6631C55.7349 14.9854 54.939 15.1465 53.9624 15.1465C53.4741 15.1465 53.0444 15.1245 52.6733 15.0806C52.3071 15.0366 51.9653 14.9658 51.6479 14.8682C51.3306 14.7656 51.001 14.6338 50.6592 14.4727V11.8945C51.2402 12.1875 51.8262 12.4121 52.417 12.5684C53.0078 12.7197 53.5425 12.7954 54.021 12.7954C54.3091 12.7954 54.5435 12.7612 54.7241 12.6929C54.9097 12.6245 55.0464 12.5317 55.1343 12.4146C55.2222 12.2925 55.2661 12.1533 55.2661 11.9971C55.2661 11.8115 55.2002 11.6553 55.0684 11.5283C54.9414 11.3965 54.7363 11.2598 54.4531 11.1182C54.1699 10.9766 53.7964 10.8008 53.3325 10.5908C52.937 10.4053 52.5781 10.2148 52.2559 10.0195C51.9385 9.82422 51.665 9.60205 51.4355 9.35303C51.2109 9.09912 51.0376 8.80371 50.9155 8.4668C50.7935 8.12988 50.7324 7.73193 50.7324 7.27295C50.7324 6.58447 50.9009 6.0083 51.2378 5.54443C51.5796 5.07568 52.0532 4.72412 52.6587 4.48975C53.269 4.25537 53.9722 4.13818 54.7681 4.13818C55.4663 4.13818 56.0938 4.21631 56.6504 4.37256C57.2119 4.52881 57.7148 4.70703 58.1592 4.90723L57.2729 7.14111C56.814 6.93115 56.3623 6.76514 55.918 6.64307C55.4736 6.51611 55.061 6.45264 54.6802 6.45264C54.4312 6.45264 54.2261 6.48437 54.0649 6.54785C53.9087 6.60645 53.7915 6.68701 53.7134 6.78955C53.6401 6.89209 53.6035 7.00928 53.6035 7.14111C53.6035 7.30713 53.667 7.45605 53.7939 7.58789C53.9258 7.71973 54.1431 7.86377 54.4458 8.02002C54.7534 8.17139 55.1709 8.36914 55.6982 8.61328C56.2207 8.84766 56.665 9.10156 57.0312 9.375C57.3975 9.64355 57.6758 9.96826 57.8662 10.3491C58.0615 10.7251 58.1592 11.1914 58.1592 11.748ZM66.9219 15H60.5645V4.29199H66.9219V6.61377H63.4575V8.29834H66.6655V10.6201H63.4575V12.6416H66.9219V15ZM74.271 15H71.3779V6.65771H68.7632V4.29199H76.8784V6.65771H74.271V15ZM83.8833 15H80.9902V6.65771H78.3755V4.29199H86.4907V6.65771H83.8833V15ZM88.7715 15V4.29199H91.6792V15H88.7715ZM104.946 15H101.152L97.2412 7.45605H97.1753C97.1997 7.68555 97.2217 7.96143 97.2412 8.28369C97.2607 8.60596 97.2778 8.93555 97.2925 9.27246C97.3071 9.60449 97.3145 9.90479 97.3145 10.1733V15H94.751V4.29199H98.5303L102.427 11.7334H102.471C102.456 11.499 102.441 11.228 102.427 10.9204C102.412 10.6079 102.397 10.293 102.383 9.97559C102.373 9.6582 102.368 9.37744 102.368 9.1333V4.29199H104.946V15ZM112.31 8.73047H116.932V14.502C116.38 14.6924 115.748 14.8486 115.035 14.9707C114.322 15.0879 113.575 15.1465 112.793 15.1465C111.763 15.1465 110.86 14.9463 110.083 14.5459C109.307 14.1455 108.702 13.5376 108.267 12.7222C107.833 11.9019 107.615 10.8667 107.615 9.6167C107.615 8.49365 107.83 7.52441 108.26 6.70898C108.689 5.88867 109.322 5.25635 110.157 4.81201C110.997 4.36279 112.024 4.13818 113.24 4.13818C113.909 4.13818 114.544 4.20166 115.145 4.32861C115.745 4.45557 116.268 4.6167 116.712 4.81201L115.796 7.08252C115.411 6.89209 115.01 6.75049 114.595 6.65771C114.18 6.56006 113.733 6.51123 113.255 6.51123C112.615 6.51123 112.1 6.65527 111.709 6.94336C111.324 7.23145 111.043 7.61719 110.867 8.10059C110.691 8.5791 110.604 9.10889 110.604 9.68994C110.604 10.354 110.696 10.9155 110.882 11.3745C111.072 11.8286 111.348 12.1753 111.709 12.4146C112.076 12.6489 112.518 12.7661 113.035 12.7661C113.206 12.7661 113.414 12.7539 113.658 12.7295C113.907 12.7051 114.095 12.6758 114.222 12.6416V10.9644H112.31V8.73047ZM126.866 11.748C126.866 12.3291 126.72 12.8809 126.427 13.4033C126.134 13.9209 125.677 14.3408 125.057 14.6631C124.442 14.9854 123.646 15.1465 122.669 15.1465C122.181 15.1465 121.751 15.1245 121.38 15.0806C121.014 15.0366 120.672 14.9658 120.355 14.8682C120.038 14.7656 119.708 14.6338 119.366 14.4727V11.8945C119.947 12.1875 120.533 12.4121 121.124 12.5684C121.715 12.7197 122.25 12.7954 122.728 12.7954C123.016 12.7954 123.25 12.7612 123.431 12.6929C123.617 12.6245 123.753 12.5317 123.841 12.4146C123.929 12.2925 123.973 12.1533 123.973 11.9971C123.973 11.8115 123.907 11.6553 123.775 11.5283C123.648 11.3965 123.443 11.2598 123.16 11.1182C122.877 10.9766 122.503 10.8008 122.04 10.5908C121.644 10.4053 121.285 10.2148 120.963 10.0195C120.646 9.82422 120.372 9.60205 120.143 9.35303C119.918 9.09912 119.745 8.80371 119.623 8.4668C119.5 8.12988 119.439 7.73193 119.439 7.27295C119.439 6.58447 119.608 6.0083 119.945 5.54443C120.287 5.07568 120.76 4.72412 121.366 4.48975C121.976 4.25537 122.679 4.13818 123.475 4.13818C124.173 4.13818 124.801 4.21631 125.357 4.37256C125.919 4.52881 126.422 4.70703 126.866 4.90723L125.98 7.14111C125.521 6.93115 125.069 6.76514 124.625 6.64307C124.181 6.51611 123.768 6.45264 123.387 6.45264C123.138 6.45264 122.933 6.48437 122.772 6.54785C122.616 6.60645 122.499 6.68701 122.42 6.78955C122.347 6.89209 122.311 7.00928 122.311 7.14111C122.311 7.30713 122.374 7.45605 122.501 7.58789C122.633 7.71973 122.85 7.86377 123.153 8.02002C123.46 8.17139 123.878 8.36914 124.405 8.61328C124.928 8.84766 125.372 9.10156 125.738 9.375C126.104 9.64355 126.383 9.96826 126.573 10.3491C126.769 10.7251 126.866 11.1914 126.866 11.748ZM135.644 17.7759H128.085V15.9741H135.644V17.7759ZM57.7271 31L57.1997 28.9932H53.7207L53.1787 31H50L53.4937 20.248H57.3535L60.8911 31H57.7271ZM56.5991 26.6201L56.1377 24.8623C56.0889 24.6719 56.0181 24.4009 55.9253 24.0493C55.8325 23.6929 55.7397 23.3267 55.647 22.9507C55.5591 22.5698 55.4907 22.2573 55.4419 22.0132C55.3979 22.2573 55.3345 22.5601 55.2515 22.9214C55.1733 23.2778 55.0903 23.6318 55.0024 23.9834C54.9194 24.335 54.8462 24.6279 54.7827 24.8623L54.3213 26.6201H56.5991ZM66.5117 20.292C67.8691 20.292 68.8848 20.5874 69.5586 21.1782C70.2373 21.769 70.5767 22.6089 70.5767 23.6978C70.5767 24.186 70.5059 24.6548 70.3643 25.104C70.2275 25.5532 70.0005 25.9536 69.6831 26.3052C69.3706 26.6567 68.9531 26.9351 68.4307 27.1401C67.9131 27.3452 67.2734 27.4478 66.5117 27.4478H65.6987V31H62.8057V20.292H66.5117ZM66.4458 22.6284H65.6987V25.0894H66.27C66.519 25.0894 66.751 25.0479 66.9658 24.9648C67.1807 24.877 67.3516 24.7378 67.4785 24.5474C67.6104 24.3521 67.6763 24.0933 67.6763 23.771C67.6763 23.4341 67.5762 23.1606 67.376 22.9507C67.1758 22.7358 66.8657 22.6284 66.4458 22.6284ZM76.7393 20.292C78.0967 20.292 79.1123 20.5874 79.7861 21.1782C80.4648 21.769 80.8042 22.6089 80.8042 23.6978C80.8042 24.186 80.7334 24.6548 80.5918 25.104C80.4551 25.5532 80.228 25.9536 79.9106 26.3052C79.5981 26.6567 79.1807 26.9351 78.6582 27.1401C78.1406 27.3452 77.501 27.4478 76.7393 27.4478H75.9263V31H73.0332V20.292H76.7393ZM76.6733 22.6284H75.9263V25.0894H76.4976C76.7466 25.0894 76.9785 25.0479 77.1934 24.9648C77.4082 24.877 77.5791 24.7378 77.7061 24.5474C77.8379 24.3521 77.9038 24.0933 77.9038 23.771C77.9038 23.4341 77.8037 23.1606 77.6035 22.9507C77.4033 22.7358 77.0933 22.6284 76.6733 22.6284Z" fill="#6E7EC4"/>
</svg>
