<svg width="122" height="122" viewBox="0 0 122 122" fill="none" xmlns="http://www.w3.org/2000/svg">
<g style="mix-blend-mode:darken">
<circle cx="61" cy="61" r="61" fill="#DFDFDF"/>
</g>
<g style="mix-blend-mode:darken">
<circle cx="61" cy="61" r="31" fill="#ACACAC"/>
</g>
<circle cx="104" cy="25" r="17" fill="#6B0796"/>
<path d="M104.833 20.8385H103.166V24.1719H99.8327V25.8385H103.166V29.1719H104.833V25.8385H108.166V24.1719H104.833V20.8385ZM103.999 16.6719C99.3993 16.6719 95.666 20.4052 95.666 25.0052C95.666 29.6052 99.3993 33.3385 103.999 33.3385C108.599 33.3385 112.333 29.6052 112.333 25.0052C112.333 20.4052 108.599 16.6719 103.999 16.6719ZM103.999 31.6719C100.324 31.6719 97.3327 28.6802 97.3327 25.0052C97.3327 21.3302 100.324 18.3385 103.999 18.3385C107.674 18.3385 110.666 21.3302 110.666 25.0052C110.666 28.6802 107.674 31.6719 103.999 31.6719Z" fill="#FAFAFA"/>
<path d="M46 45.9958H59.3333V53.2292L68.7667 43.8125L78.1833 53.2292L68.7667 62.6625H76V75.9958H62.6667V62.6625H68.7667L59.3333 53.2292V59.3292H46V45.9958ZM46 62.6625H59.3333V75.9958H46V62.6625Z" fill="#4D5150"/>
</svg>
