<svg width="78" height="78" viewBox="0 0 78 78" fill="none" xmlns="http://www.w3.org/2000/svg">
<g filter="url(#filter0_d)">
<rect x="8" y="4" width="62" height="62" rx="13" fill="url(#paint0_linear)"/>
</g>
<path d="M52.1767 39.9108L52.1767 39.9108L56.1497 26.606C56.2587 26.2413 56.1883 25.8467 55.9605 25.5418L55.9604 25.5418C55.7325 25.2369 55.3737 25.0574 54.9928 25.0574H29.5061L28.1932 20.6608L28.0016 20.718L28.1932 20.6608C28.0407 20.1499 27.5699 19.8002 27.0362 19.8002L23.0073 19.8002C23.0073 19.8002 23.0073 19.8002 23.0073 19.8002C22.3411 19.8001 21.8 20.3389 21.8 21.0048C21.8 21.6705 22.3411 22.2094 23.0073 22.2094H26.1362L27.442 26.5824C27.4463 26.5976 27.4511 26.614 27.4566 26.6309L30.97 38.3969C28.9389 38.6561 27.3631 40.39 27.3631 42.4864C27.3631 44.7611 29.2181 46.6105 31.4975 46.6105H32.3508C32.8567 48.1137 34.2813 49.2002 35.9571 49.2002C37.6328 49.2002 39.0575 48.1138 39.5634 46.6105H44.6145C45.1204 48.1137 46.545 49.2002 48.2208 49.2002C49.8965 49.2002 51.3211 48.1138 51.8271 46.6105H52.9781C53.6444 46.6105 54.1854 46.0716 54.1854 45.4058C54.1854 44.74 53.6444 44.2012 52.9781 44.2012H51.8271C51.3212 42.6978 49.8966 41.6114 48.2208 41.6114C46.545 41.6114 45.1203 42.6978 44.6144 44.2012H39.5634C39.0575 42.6978 37.6329 41.6114 35.9571 41.6114C34.2813 41.6114 32.8566 42.6978 32.3508 44.2012H31.4975C30.5488 44.2012 29.7776 43.4312 29.7776 42.4863C29.7776 41.5414 30.5489 40.7715 31.4976 40.7715H32.5791H51.0197C51.5534 40.7715 52.0241 40.4218 52.1767 39.9108ZM46.4746 27.4666H53.3733L52.1062 31.7098H46.4746V27.4666ZM46.4745 34.119H51.3867L50.1197 38.3622H46.4745V34.119ZM39.021 27.4666H44.06V31.7098H39.021V27.4666ZM39.0209 34.119H44.06V38.3622H39.0209V34.119ZM36.6065 38.3622H33.4792L32.2121 34.119H36.6065V38.3622ZM30.2257 27.4666H36.6064V31.7098H31.4927L30.2257 27.4666ZM48.2208 44.0207C48.9872 44.0207 49.6101 44.6427 49.6101 45.4057C49.6101 46.1688 48.9872 46.7908 48.2208 46.7908C47.4544 46.7908 46.8315 46.1688 46.8315 45.4057C46.8315 44.6427 47.4544 44.0207 48.2208 44.0207ZM35.9572 44.0207C36.7236 44.0207 37.3465 44.6427 37.3465 45.4057C37.3465 46.1688 36.7236 46.7908 35.9572 46.7908C35.1908 46.7908 34.5679 46.1688 34.5679 45.4057C34.5679 44.6427 35.1908 44.0207 35.9572 44.0207Z" fill="#F5F8F7" stroke="#F5F8F7" stroke-width="0.4"/>
<defs>
<filter id="filter0_d" x="0" y="0" width="78" height="78" filterUnits="userSpaceOnUse" color-interpolation-filters="sRGB">
<feFlood flood-opacity="0" result="BackgroundImageFix"/>
<feColorMatrix in="SourceAlpha" type="matrix" values="0 0 0 0 0 0 0 0 0 0 0 0 0 0 0 0 0 0 127 0"/>
<feOffset dy="4"/>
<feGaussianBlur stdDeviation="4"/>
<feColorMatrix type="matrix" values="0 0 0 0 0.356863 0 0 0 0 0.360784 0 0 0 0 0.356863 0 0 0 0.35 0"/>
<feBlend mode="normal" in2="BackgroundImageFix" result="effect1_dropShadow"/>
<feBlend mode="normal" in="SourceGraphic" in2="effect1_dropShadow" result="shape"/>
</filter>
<linearGradient id="paint0_linear" x1="39" y1="4" x2="39" y2="66" gradientUnits="userSpaceOnUse">
<stop stop-color="#FFE259"/>
<stop offset="1" stop-color="#FFA751"/>
</linearGradient>
</defs>
</svg>
