<svg width="193" height="36" viewBox="0 0 193 36" fill="none" xmlns="http://www.w3.org/2000/svg">
<path d="M18 19.5C16.0109 19.5 14.1032 18.7098 12.6967 17.3033C11.2902 15.8968 10.5 13.9891 10.5 12H13.5C13.5 13.1935 13.9741 14.3381 14.818 15.182C15.6619 16.0259 16.8065 16.5 18 16.5C19.1935 16.5 20.3381 16.0259 21.182 15.182C22.0259 14.3381 22.5 13.1935 22.5 12H25.5C25.5 13.9891 24.7098 15.8968 23.3033 17.3033C21.8968 18.7098 19.9891 19.5 18 19.5M18 4.5C19.1935 4.5 20.3381 4.97411 21.182 5.81802C22.0259 6.66193 22.5 7.80653 22.5 9H13.5C13.5 7.80653 13.9741 6.66193 14.818 5.81802C15.6619 4.97411 16.8065 4.5 18 4.5M28.5 9H25.5C25.5 8.01509 25.306 7.03982 24.9291 6.12987C24.5522 5.21993 23.9997 4.39314 23.3033 3.6967C22.6069 3.00026 21.7801 2.44781 20.8701 2.0709C19.9602 1.69399 18.9849 1.5 18 1.5C16.0109 1.5 14.1032 2.29018 12.6967 3.6967C11.2902 5.10322 10.5 7.01088 10.5 9H7.5C5.835 9 4.5 10.335 4.5 12V30C4.5 30.7956 4.81607 31.5587 5.37868 32.1213C5.94129 32.6839 6.70435 33 7.5 33H28.5C29.2956 33 30.0587 32.6839 30.6213 32.1213C31.1839 31.5587 31.5 30.7956 31.5 30V12C31.5 11.2044 31.1839 10.4413 30.6213 9.87868C30.0587 9.31607 29.2956 9 28.5 9V9Z" fill="#1849A9"/>
<path d="M57.7271 15L57.1997 12.9932H53.7207L53.1787 15H50L53.4937 4.24805H57.3535L60.8911 15H57.7271ZM56.5991 10.6201L56.1377 8.8623C56.0889 8.67188 56.0181 8.40088 55.9253 8.04932C55.8325 7.69287 55.7397 7.32666 55.647 6.95068C55.5591 6.56982 55.4907 6.25732 55.4419 6.01318C55.3979 6.25732 55.3345 6.56006 55.2515 6.92139C55.1733 7.27783 55.0903 7.63184 55.0024 7.9834C54.9194 8.33496 54.8462 8.62793 54.7827 8.8623L54.3213 10.6201H56.5991ZM66.5117 4.29199C67.8691 4.29199 68.8848 4.5874 69.5586 5.17822C70.2373 5.76904 70.5767 6.60889 70.5767 7.69775C70.5767 8.18604 70.5059 8.65479 70.3643 9.104C70.2275 9.55322 70.0005 9.95361 69.6831 10.3052C69.3706 10.6567 68.9531 10.9351 68.4307 11.1401C67.9131 11.3452 67.2734 11.4478 66.5117 11.4478H65.6987V15H62.8057V4.29199H66.5117ZM66.4458 6.62842H65.6987V9.08936H66.27C66.519 9.08936 66.751 9.04785 66.9658 8.96484C67.1807 8.87695 67.3516 8.73779 67.4785 8.54736C67.6104 8.35205 67.6763 8.09326 67.6763 7.771C67.6763 7.43408 67.5762 7.16064 67.376 6.95068C67.1758 6.73584 66.8657 6.62842 66.4458 6.62842ZM76.7393 4.29199C78.0967 4.29199 79.1123 4.5874 79.7861 5.17822C80.4648 5.76904 80.8042 6.60889 80.8042 7.69775C80.8042 8.18604 80.7334 8.65479 80.5918 9.104C80.4551 9.55322 80.228 9.95361 79.9106 10.3052C79.5981 10.6567 79.1807 10.9351 78.6582 11.1401C78.1406 11.3452 77.501 11.4478 76.7393 11.4478H75.9263V15H73.0332V4.29199H76.7393ZM76.6733 6.62842H75.9263V9.08936H76.4976C76.7466 9.08936 76.9785 9.04785 77.1934 8.96484C77.4082 8.87695 77.5791 8.73779 77.7061 8.54736C77.8379 8.35205 77.9038 8.09326 77.9038 7.771C77.9038 7.43408 77.8037 7.16064 77.6035 6.95068C77.4033 6.73584 77.0933 6.62842 76.6733 6.62842ZM89.6328 17.7759H82.0742V15.9741H89.6328V17.7759ZM55.8228 31L53.6328 23.2876H53.5669C53.5864 23.4878 53.606 23.7588 53.6255 24.1006C53.6499 24.4424 53.6719 24.811 53.6914 25.2065C53.7109 25.6021 53.7207 25.9829 53.7207 26.3491V31H51.1572V20.292H55.0098L57.2437 27.8945H57.3022L59.4922 20.292H63.3521V31H60.6934V26.3052C60.6934 25.9683 60.6982 25.6069 60.708 25.2212C60.7227 24.8306 60.7373 24.4644 60.752 24.1226C60.7715 23.7759 60.7886 23.5024 60.8032 23.3022H60.7373L58.5767 31H55.8228ZM72.979 31L72.4517 28.9932H68.9727L68.4307 31H65.252L68.7456 20.248H72.6055L76.1431 31H72.979ZM71.8511 26.6201L71.3896 24.8623C71.3408 24.6719 71.27 24.4009 71.1772 24.0493C71.0845 23.6929 70.9917 23.3267 70.8989 22.9507C70.811 22.5698 70.7427 22.2573 70.6938 22.0132C70.6499 22.2573 70.5864 22.5601 70.5034 22.9214C70.4253 23.2778 70.3423 23.6318 70.2544 23.9834C70.1714 24.335 70.0981 24.6279 70.0347 24.8623L69.5732 26.6201H71.8511ZM81.5659 20.292C82.5376 20.292 83.3457 20.4116 83.9902 20.6509C84.6348 20.8853 85.1182 21.2368 85.4404 21.7056C85.7676 22.1743 85.9312 22.7578 85.9312 23.4561C85.9312 23.8906 85.8579 24.2861 85.7114 24.6426C85.5649 24.999 85.355 25.3188 85.0815 25.6021C84.813 25.8804 84.4907 26.1245 84.1147 26.3345L87.2349 31H83.9536L81.6831 27.1035H80.9507V31H78.0576V20.292H81.5659ZM81.522 22.4819H80.9507V24.9282H81.4927C81.937 24.9282 82.3008 24.8306 82.584 24.6353C82.8672 24.4399 83.0088 24.0908 83.0088 23.5879C83.0088 23.2412 82.8916 22.9702 82.6572 22.7749C82.4229 22.5796 82.0444 22.4819 81.522 22.4819ZM98.1069 31H94.8403L92.7236 26.9058L91.8667 27.4185V31H88.959V20.292H91.8667V24.9429C91.9888 24.7085 92.1279 24.4741 92.2842 24.2397C92.4453 24.0054 92.6016 23.7832 92.7529 23.5732L95.0015 20.292H98.1655L94.7891 25.0894L98.1069 31ZM106.379 31H100.021V20.292H106.379V22.6138H102.915V24.2983H106.123V26.6201H102.915V28.6416H106.379V31ZM113.728 31H110.835V22.6577H108.22V20.292H116.335V22.6577H113.728V31Z" fill="#C3C2C2"/>
</svg>
