<svg width="44" height="44" viewBox="0 0 44 44" fill="none" xmlns="http://www.w3.org/2000/svg">
<rect width="44" height="44" rx="8" fill="#303132"/>
<path d="M31.1256 13.291C30.8922 13.291 30.7031 13.4802 30.7031 13.7135V18.744C30.7031 18.9773 30.8923 19.1665 31.1256 19.1665C31.359 19.1665 31.5482 18.9773 31.5482 18.744V13.7135C31.5482 13.4802 31.359 13.291 31.1256 13.291V13.291Z" fill="#E4E4F5"/>
<path d="M12.984 13.291C12.7506 13.291 12.5615 13.4802 12.5615 13.7135V18.2037C12.5615 18.4371 12.7507 18.6262 12.984 18.6262C13.2174 18.6262 13.4066 18.4371 13.4066 18.2037V13.7135C13.4066 13.4802 13.2174 13.291 12.984 13.291Z" fill="#E4E4F5"/>
<path d="M26.0016 9.79688C25.8807 9.79688 25.7654 9.84872 25.6853 9.93934L23.7693 12.1035C23.7008 12.1808 23.6631 12.2805 23.6631 12.3836V15.2683C23.6631 15.4997 23.8414 15.7014 24.0727 15.7083C24.312 15.7155 24.5082 15.5236 24.5082 15.286V12.5438L26.1919 10.642H28.6491V9.79688H26.0016Z" fill="#E4E4F5"/>
<path d="M15.1172 10.644H17.7754L19.4591 12.5458V15.288C19.4591 15.5213 19.6483 15.7105 19.8816 15.7105C20.115 15.7105 20.3041 15.5213 20.3041 15.288V12.3856C20.3041 12.2824 20.2664 12.1828 20.1979 12.1055L18.282 9.94129C18.2018 9.85073 18.0866 9.79883 17.9656 9.79883H15.1172V10.644H15.1172Z" fill="#E4E4F5"/>
<path d="M21.9987 9.20703C21.7653 9.20703 21.5762 9.3962 21.5762 9.62955V14.3504C21.5762 14.5837 21.7653 14.7729 21.9987 14.7729C22.232 14.7729 22.4212 14.5837 22.4212 14.3504V9.62955C22.4212 9.3962 22.2321 9.20703 21.9987 9.20703V9.20703Z" fill="#E4E4F5"/>
<path d="M15.0081 11.0299C15.4554 11.0299 15.818 10.6673 15.818 10.22C15.818 9.77275 15.4554 9.41016 15.0081 9.41016C14.5608 9.41016 14.1982 9.77275 14.1982 10.22C14.1982 10.6673 14.5608 11.0299 15.0081 11.0299Z" fill="#05FFFC"/>
<path d="M28.6458 11.0299C29.0931 11.0299 29.4557 10.6673 29.4557 10.22C29.4557 9.77275 29.0931 9.41016 28.6458 9.41016C28.1985 9.41016 27.8359 9.77275 27.8359 10.22C27.8359 10.6673 28.1985 11.0299 28.6458 11.0299Z" fill="#05FFFC"/>
<path d="M22 10.004C22.5534 10.004 23.002 9.55536 23.002 9.00198C23.002 8.4486 22.5534 8 22 8C21.4467 8 20.998 8.4486 20.998 9.00198C20.998 9.55536 21.4467 10.004 22 10.004Z" fill="#FFF245"/>
<path d="M31.1351 13.9713C31.5824 13.9713 31.9449 13.6087 31.9449 13.1614C31.9449 12.7142 31.5824 12.3516 31.1351 12.3516C30.6878 12.3516 30.3252 12.7142 30.3252 13.1614C30.3252 13.6087 30.6878 13.9713 31.1351 13.9713Z" fill="#FF6EF9"/>
<path d="M12.9847 13.9713C13.4319 13.9713 13.7945 13.6087 13.7945 13.1614C13.7945 12.7142 13.4319 12.3516 12.9847 12.3516C12.5374 12.3516 12.1748 12.7142 12.1748 13.1614C12.1748 13.6087 12.5374 13.9713 12.9847 13.9713Z" fill="#FF6EF9"/>
<path d="M21.9983 20.873L17.4854 22.7568L21.9983 24.6405L26.5112 22.7568L21.9983 20.873Z" fill="#05EAF2"/>
<path d="M21.9983 13.4434L17.4854 15.3271L21.9983 17.2108L26.5112 15.3271L21.9983 13.4434Z" fill="#05FFFC"/>
<path d="M21.9983 22.4075L17.4854 20.5238V15.3262L21.9983 17.2099V22.4075Z" fill="#0EB0AD"/>
<path d="M21.998 22.4075L26.511 20.5238V15.3262L21.998 17.2099V22.4075Z" fill="#0DD1CF"/>
<path d="M15.1184 23.8809L10.6055 25.7646L15.1184 27.6482L19.6314 25.7646L15.1184 23.8809Z" fill="#05FFFC"/>
<path d="M15.1184 32.8449L10.6055 30.9612V25.7637L15.1184 27.6473V32.8449Z" fill="#0EB0AD"/>
<path d="M15.1191 32.8449L19.6321 30.9612V25.7637L15.1191 27.6473V32.8449Z" fill="#0DD1CF"/>
<path d="M15.1184 16.4473L10.6055 18.331L15.1184 20.2146L19.6314 18.331L15.1184 16.4473Z" fill="#FF6EF9"/>
<path d="M15.1184 25.4113L10.6055 23.5276V18.3301L15.1184 20.2137V25.4113Z" fill="#CC21C4"/>
<path d="M15.1191 25.4113L19.6321 23.5276V18.3301L15.1191 20.2137V25.4113Z" fill="#E643DE"/>
<path d="M28.8791 24.0273L24.3662 25.9111L28.8791 27.7948L33.3921 25.9111L28.8791 24.0273Z" fill="#05FFFC"/>
<path d="M28.8791 32.9915L24.3662 31.1078V25.9102L28.8791 27.7939V32.9915Z" fill="#0EB0AD"/>
<path d="M28.8789 32.9915L33.3919 31.1078V25.9102L28.8789 27.7939V32.9915Z" fill="#0DD1CF"/>
<path d="M28.8791 16.5977L24.3662 18.4814L28.8791 20.3651L33.3921 18.4814L28.8791 16.5977Z" fill="#FF6EF9"/>
<path d="M28.8791 25.5618L24.3662 23.6781V18.4805L28.8791 20.3642V25.5618Z" fill="#CC21C4"/>
<path d="M28.8789 25.5618L33.3919 23.6781V18.4805L28.8789 20.3642V25.5618Z" fill="#E643DE"/>
<path d="M31.7012 19.1859V24.3836L33.3913 23.6781V18.4805L31.7012 19.1859Z" fill="#DE2FD5"/>
<path d="M31.7012 26.6176V31.8152L33.3913 31.1097V25.9121L31.7012 26.6176Z" fill="#00C4C2"/>
<path d="M21.9983 27.0332L17.4854 28.9169L21.9983 30.8006L26.5112 28.9169L21.9983 27.0332Z" fill="#FF6EF9"/>
<path d="M21.9983 35.9993L17.4854 34.1156V28.918L21.9983 30.8017V35.9993Z" fill="#CC21C4"/>
<path d="M21.998 35.9993L26.511 34.1156V28.918L21.998 30.8017V35.9993Z" fill="#E643DE"/>
<path d="M21.9983 19.6035L17.4854 21.4872L21.9983 23.3709L26.5112 21.4872L21.9983 19.6035Z" fill="#FFF245"/>
<path d="M21.9983 28.5677L17.4854 26.6839V21.4863L21.9983 23.37V28.5677Z" fill="#FFC517"/>
<path d="M21.998 28.5677L26.511 26.6839V21.4863L21.998 23.37V28.5677Z" fill="#FFD747"/>
<path d="M24.7383 22.1887V27.234L26.3789 26.5492V21.5039L24.7383 22.1887Z" fill="#FFC830"/>
<path d="M24.7383 29.4016V34.4469L26.3789 33.7621V28.7168L24.7383 29.4016Z" fill="#DE2FD5"/>
</svg>
