<svg width="25" height="25" viewBox="0 0 25 25" fill="none" xmlns="http://www.w3.org/2000/svg">
<path opacity="0.6" d="M20.3125 25H4.6875C2.09844 25 0 22.9016 0 20.3125V4.6875C0 2.09844 2.09844 0 4.6875 0H20.3125C22.9016 0 25 2.09844 25 4.6875V20.3125C25 22.9016 22.9016 25 20.3125 25Z" fill="#E9D8FD"/>
<path d="M6.2474 16.6495V16.6654H4.16406V8.33203H6.203L6.01719 9.79125C5.2493 10.5092 4.82178 11.3899 4.82178 12.3036C4.82178 13.2173 5.2493 14.098 6.01719 14.8147L6.2474 16.6495Z" fill="#B794F4"/>
<path d="M20.8307 14.7695C20.8307 15.2532 20.4411 15.639 19.9607 15.639H15.7545C15.5947 15.639 15.4694 15.7726 15.4694 15.9334C15.4694 16.0943 15.5947 16.2205 15.7545 16.2205H18.3031L17.6419 16.8797C16.8972 17.6367 15.8172 17.8964 14.8145 17.5736L12.2732 16.6484C12.127 16.6063 11.9944 16.5506 11.8555 16.4875C11.4241 16.3056 10.9572 16.1721 10.4423 16.0953C10.4496 16.0533 10.4496 16.0186 10.4558 15.9765L10.6021 14.4068C11.0898 13.7896 11.3614 13.0326 11.3614 12.2482C11.3614 11.4628 11.0898 10.7058 10.6021 10.0897L10.4558 8.5126C10.4485 8.44216 10.435 8.37276 10.4141 8.30968C10.5112 8.24659 10.6021 8.17615 10.6856 8.09204C11.445 7.37708 12.4957 7.314 13.6029 7.314L17.8226 7.29297C18.0106 7.29297 18.1777 7.36972 18.3104 7.49589C18.443 7.62942 18.5193 7.81131 18.512 7.99321C18.512 8.37171 18.2059 8.67977 17.8226 8.67977H16.5201C16.3603 8.67977 16.235 8.8133 16.235 8.97417C16.235 9.13503 16.3603 9.2612 16.5201 9.2612H19.2076C19.6881 9.2612 20.0777 9.65337 20.0777 10.137C20.0777 10.6133 19.6881 10.9992 19.2076 10.9992H17.2931C17.1259 10.9992 17.0079 11.1327 17.0079 11.2936C17.0079 11.4544 17.1259 11.5806 17.2931 11.5806H19.8761C20.3847 11.5806 20.8088 11.9591 20.8234 12.4217C20.8307 12.6604 20.7534 12.8843 20.5936 13.0526C20.4338 13.2282 20.2103 13.3186 19.9669 13.3186H17.2931C17.1259 13.3186 17.0079 13.4521 17.0079 13.613C17.0079 13.7738 17.1259 13.9 17.2931 13.9H19.9669C20.4411 13.9 20.8307 14.2922 20.8307 14.7695Z" fill="#B794F4"/>
<path d="M10.4004 10.1688L10.2081 8.11656C10.1757 7.76553 9.88007 7.50195 9.52677 7.50195H6.72323C6.37113 7.50195 6.07431 7.76553 6.04187 8.11656L5.8496 10.1688C5.32085 10.7283 5 11.4711 5 12.293C5 13.1161 5.32085 13.8589 5.8496 14.4172L6.04187 16.4695C6.0659 16.6935 6.18607 16.8768 6.36272 16.9811C6.46727 17.0446 6.58744 17.0853 6.72323 17.0853H9.52677C9.66256 17.0853 9.78273 17.0458 9.88728 16.9811C10.0639 16.8768 10.1841 16.6935 10.2081 16.4695L10.4004 14.4172C10.9291 13.8577 11.25 13.1149 11.25 12.293C11.25 11.4711 10.9291 10.7283 10.4004 10.1688ZM8.1256 14.4507C6.93232 14.4507 5.96255 13.4839 5.96255 12.2942C5.96255 11.1045 6.93232 10.1377 8.1256 10.1377C9.31888 10.1377 10.2886 11.1045 10.2886 12.2942C10.2886 13.4839 9.31888 14.4507 8.1256 14.4507Z" fill="#6B46C1"/>
</svg>
