<svg width="284" height="213" viewBox="0 0 284 213" fill="none" xmlns="http://www.w3.org/2000/svg">
<rect width="284" height="213" rx="8" fill="url(#paint0_linear_9473_52778)"/>
<g filter="url(#filter0_d_9473_52778)">
<path opacity="0.6" d="M248.5 185H223.5C219.358 185 216 181.642 216 177.5V152.5C216 148.358 219.358 145 223.5 145H248.5C252.642 145 256 148.358 256 152.5V177.5C256 181.642 252.642 185 248.5 185Z" fill="#FCEFC2"/>
<path d="M227.75 173.25C227.75 173.051 227.829 172.86 227.97 172.72C228.11 172.579 228.301 172.5 228.5 172.5H243.5C243.699 172.5 243.89 172.579 244.03 172.72C244.171 172.86 244.25 173.051 244.25 173.25C244.25 173.449 244.171 173.64 244.03 173.78C243.89 173.921 243.699 174 243.5 174H228.5C228.301 174 228.11 173.921 227.97 173.78C227.829 173.64 227.75 173.449 227.75 173.25ZM227 156H245C245 156 248 156 248 159V168C248 168 248 171 245 171H227C227 171 224 171 224 168V159C224 159 224 156 227 156Z" fill="#EDA436"/>
</g>
<line x1="140" y1="73" x2="140" y2="57" stroke="#BED1EE" stroke-width="2" stroke-dasharray="2 2"/>
<g filter="url(#filter1_d_9473_52778)">
<path opacity="0.6" d="M59.5 185H34.5C30.3575 185 27 181.642 27 177.5V152.5C27 148.358 30.3575 145 34.5 145H59.5C63.6425 145 67 148.358 67 152.5V177.5C67 181.642 63.6425 185 59.5 185Z" fill="#E9D8FD"/>
<path d="M36.9974 171.64V171.665H33.6641V158.332H36.9264L36.6291 160.667C35.4004 161.816 34.7164 163.225 34.7164 164.687C34.7164 166.148 35.4004 167.558 36.6291 168.704L36.9974 171.64Z" fill="#B794F4"/>
<path d="M60.3307 168.63C60.3307 169.404 59.7074 170.022 58.9386 170.022H52.2088C51.9531 170.022 51.7526 170.235 51.7526 170.493C51.7526 170.75 51.9531 170.952 52.2088 170.952H56.2865L55.2286 172.007C54.0371 173.218 52.3091 173.633 50.7047 173.117L46.6388 171.637C46.4048 171.569 46.1926 171.48 45.9703 171.379C45.2801 171.088 44.5331 170.875 43.7092 170.752C43.7209 170.684 43.7209 170.629 43.7309 170.562L43.9649 168.05C44.7453 167.063 45.1798 165.851 45.1798 164.596C45.1798 163.34 44.7453 162.129 43.9649 161.143L43.7309 158.619C43.7192 158.507 43.6975 158.396 43.6641 158.295C43.8195 158.194 43.9649 158.081 44.0986 157.946C45.3135 156.803 46.9947 156.702 48.7662 156.702L55.5177 156.668C55.8185 156.668 56.0859 156.791 56.2982 156.993C56.5104 157.206 56.6324 157.497 56.6207 157.788C56.6207 158.394 56.1311 158.887 55.5177 158.887H53.4338C53.1781 158.887 52.9775 159.101 52.9775 159.358C52.9775 159.615 53.1781 159.817 53.4338 159.817H57.7337C58.5025 159.817 59.1258 160.445 59.1258 161.218C59.1258 161.981 58.5025 162.598 57.7337 162.598H54.6704C54.4031 162.598 54.2142 162.812 54.2142 163.069C54.2142 163.326 54.4031 163.528 54.6704 163.528H58.8033C59.6171 163.528 60.2956 164.134 60.319 164.874C60.3307 165.256 60.2071 165.614 59.9514 165.883C59.6957 166.164 59.338 166.309 58.9487 166.309H54.6704C54.4031 166.309 54.2142 166.523 54.2142 166.78C54.2142 167.037 54.4031 167.239 54.6704 167.239H58.9487C59.7074 167.239 60.3307 167.867 60.3307 168.63Z" fill="#B794F4"/>
<path d="M43.6406 161.269L43.333 157.985C43.2811 157.424 42.8081 157.002 42.2428 157.002H37.7572C37.1938 157.002 36.7189 157.424 36.667 157.985L36.3594 161.269C35.5134 162.164 35 163.353 35 164.668C35 165.985 35.5134 167.173 36.3594 168.066L36.667 171.35C36.7054 171.708 36.8977 172.002 37.1803 172.169C37.3476 172.27 37.5399 172.335 37.7572 172.335H42.2428C42.4601 172.335 42.6524 172.272 42.8197 172.169C43.1023 172.002 43.2946 171.708 43.333 171.35L43.6406 168.066C44.4866 167.171 45 165.983 45 164.668C45 163.353 44.4866 162.164 43.6406 161.269ZM40.001 168.12C38.0917 168.12 36.5401 166.573 36.5401 164.67C36.5401 162.766 38.0917 161.219 40.001 161.219C41.9102 161.219 43.4618 162.766 43.4618 164.67C43.4618 166.573 41.9102 168.12 40.001 168.12Z" fill="#6B46C1"/>
</g>
<g filter="url(#filter2_d_9473_52778)">
<rect x="112" y="77" width="58" height="58" rx="8" fill="url(#paint1_linear_9473_52778)"/>
</g>
<path d="M152.638 102.895C151.561 97.4329 146.763 93.332 141 93.332C136.424 93.332 132.45 95.9287 130.471 99.7287C125.705 100.235 122 104.273 122 109.165C122 114.406 126.259 118.665 131.5 118.665H152.083C156.453 118.665 160 115.119 160 110.749C160 106.569 156.754 103.18 152.638 102.895ZM152.083 115.499H131.5C128.001 115.499 125.167 112.665 125.167 109.165C125.167 105.666 128.001 102.832 131.5 102.832H132.624C133.669 99.1745 137.01 96.4987 141 96.4987C145.813 96.4987 149.708 100.394 149.708 105.207V105.999H152.083C154.712 105.999 156.833 108.12 156.833 110.749C156.833 113.377 154.712 115.499 152.083 115.499Z" fill="#F5F8F7"/>
<path d="M161 33C161 44.0458 152.046 53 141 53C129.954 53 121 44.0458 121 33C121 21.9542 129.954 13 141 13C152.046 13 161 21.9542 161 33Z" fill="url(#paint2_linear_9473_52778)"/>
<path d="M137.942 32.3437H133.402C132.077 32.3437 131 31.2663 131 29.942V25.4017C131 24.0774 132.077 23 133.402 23H137.942C139.266 23 140.344 24.0774 140.344 25.4017V29.942C140.344 31.2663 139.266 32.3437 137.942 32.3437ZM133.402 24.7753C133.056 24.7753 132.775 25.0564 132.775 25.4017V29.942C132.775 30.2874 133.056 30.5685 133.402 30.5685H137.942C138.287 30.5685 138.568 30.2874 138.568 29.942V25.4017C138.568 25.0564 138.287 24.7753 137.942 24.7753H133.402Z" fill="white"/>
<path d="M148.572 32.3437H144.092C142.751 32.3437 141.66 31.2527 141.66 29.9115V25.4322C141.66 24.0911 142.751 23 144.092 23H148.572C149.913 23 151.004 24.0911 151.004 25.4322V29.9115C151.004 31.2527 149.913 32.3437 148.572 32.3437ZM144.092 24.7753C143.73 24.7753 143.435 25.07 143.435 25.4322V29.9115C143.435 30.2738 143.73 30.5685 144.092 30.5685H148.572C148.934 30.5685 149.229 30.2738 149.229 29.9115V25.4322C149.229 25.07 148.934 24.7753 148.572 24.7753H144.092Z" fill="white"/>
<path d="M137.942 43H133.402C132.077 43 131 41.9226 131 40.5983V36.0579C131 34.7337 132.077 33.6562 133.402 33.6562H137.942C139.266 33.6562 140.344 34.7337 140.344 36.0579V40.5983C140.344 41.9226 139.266 43 137.942 43ZM133.402 35.4315C133.056 35.4315 132.775 35.7126 132.775 36.0579V40.5983C132.775 40.9439 133.056 41.2247 133.402 41.2247H137.942C138.287 41.2247 138.568 40.9439 138.568 40.5983V36.0579C138.568 35.7126 138.287 35.4315 137.942 35.4315H133.402Z" fill="white"/>
<path d="M148.572 43H144.092C142.751 43 141.66 41.9089 141.66 40.5678V36.0885C141.66 34.7473 142.751 33.6562 144.092 33.6562H148.572C149.913 33.6562 151.004 34.7473 151.004 36.0885V40.5678C151.004 41.9089 149.913 43 148.572 43ZM144.092 35.4315C143.73 35.4315 143.435 35.7262 143.435 36.0885V40.5678C143.435 40.93 143.73 41.2247 144.092 41.2247H148.572C148.934 41.2247 149.229 40.93 149.229 40.5678V36.0885C149.229 35.7262 148.934 35.4315 148.572 35.4315H144.092Z" fill="white"/>
<defs>
<filter id="filter0_d_9473_52778" x="210" y="142" width="52" height="52" filterUnits="userSpaceOnUse" color-interpolation-filters="sRGB">
<feFlood flood-opacity="0" result="BackgroundImageFix"/>
<feColorMatrix in="SourceAlpha" type="matrix" values="0 0 0 0 0 0 0 0 0 0 0 0 0 0 0 0 0 0 127 0" result="hardAlpha"/>
<feOffset dy="3"/>
<feGaussianBlur stdDeviation="3"/>
<feComposite in2="hardAlpha" operator="out"/>
<feColorMatrix type="matrix" values="0 0 0 0 0.356863 0 0 0 0 0.360784 0 0 0 0 0.356863 0 0 0 0.25 0"/>
<feBlend mode="normal" in2="BackgroundImageFix" result="effect1_dropShadow_9473_52778"/>
<feBlend mode="normal" in="SourceGraphic" in2="effect1_dropShadow_9473_52778" result="shape"/>
</filter>
<filter id="filter1_d_9473_52778" x="21" y="142" width="52" height="52" filterUnits="userSpaceOnUse" color-interpolation-filters="sRGB">
<feFlood flood-opacity="0" result="BackgroundImageFix"/>
<feColorMatrix in="SourceAlpha" type="matrix" values="0 0 0 0 0 0 0 0 0 0 0 0 0 0 0 0 0 0 127 0" result="hardAlpha"/>
<feOffset dy="3"/>
<feGaussianBlur stdDeviation="3"/>
<feComposite in2="hardAlpha" operator="out"/>
<feColorMatrix type="matrix" values="0 0 0 0 0.356863 0 0 0 0 0.360784 0 0 0 0 0.356863 0 0 0 0.25 0"/>
<feBlend mode="normal" in2="BackgroundImageFix" result="effect1_dropShadow_9473_52778"/>
<feBlend mode="normal" in="SourceGraphic" in2="effect1_dropShadow_9473_52778" result="shape"/>
</filter>
<filter id="filter2_d_9473_52778" x="105.416" y="73.7082" width="71.167" height="71.167" filterUnits="userSpaceOnUse" color-interpolation-filters="sRGB">
<feFlood flood-opacity="0" result="BackgroundImageFix"/>
<feColorMatrix in="SourceAlpha" type="matrix" values="0 0 0 0 0 0 0 0 0 0 0 0 0 0 0 0 0 0 127 0" result="hardAlpha"/>
<feOffset dy="3.29175"/>
<feGaussianBlur stdDeviation="3.29175"/>
<feColorMatrix type="matrix" values="0 0 0 0 0.356863 0 0 0 0 0.360784 0 0 0 0 0.356863 0 0 0 0.35 0"/>
<feBlend mode="normal" in2="BackgroundImageFix" result="effect1_dropShadow_9473_52778"/>
<feBlend mode="normal" in="SourceGraphic" in2="effect1_dropShadow_9473_52778" result="shape"/>
</filter>
<linearGradient id="paint0_linear_9473_52778" x1="0" y1="0" x2="284" y2="213" gradientUnits="userSpaceOnUse">
<stop stop-color="#F8FAFC"/>
<stop offset="1" stop-color="#F3F7FA"/>
</linearGradient>
<linearGradient id="paint1_linear_9473_52778" x1="141.644" y1="135" x2="141.644" y2="77" gradientUnits="userSpaceOnUse">
<stop stop-color="#C84E89"/>
<stop offset="1" stop-color="#F15F79"/>
</linearGradient>
<linearGradient id="paint2_linear_9473_52778" x1="121" y1="33" x2="161" y2="33" gradientUnits="userSpaceOnUse">
<stop stop-color="#72C6EF"/>
<stop offset="1" stop-color="#004E8F"/>
</linearGradient>
</defs>
</svg>
