<svg width="25" height="25" viewBox="0 0 25 25" fill="none" xmlns="http://www.w3.org/2000/svg">
<path opacity="0.6" d="M20.3125 25H4.6875C2.09844 25 0 22.9016 0 20.3125V4.6875C0 2.09844 2.09844 0 4.6875 0H20.3125C22.9016 0 25 2.09844 25 4.6875V20.3125C25 22.9016 22.9016 25 20.3125 25Z" fill="#FCEFC2"/>
<path d="M7.34375 17.6562C7.34375 17.5319 7.39314 17.4127 7.48104 17.3248C7.56895 17.2369 7.68818 17.1875 7.8125 17.1875H17.1875C17.3118 17.1875 17.431 17.2369 17.519 17.3248C17.6069 17.4127 17.6562 17.5319 17.6562 17.6562C17.6562 17.7806 17.6069 17.8998 17.519 17.9877C17.431 18.0756 17.3118 18.125 17.1875 18.125H7.8125C7.68818 18.125 7.56895 18.0756 7.48104 17.9877C7.39314 17.8998 7.34375 17.7806 7.34375 17.6562ZM6.875 6.875H18.125C18.125 6.875 20 6.875 20 8.75V14.375C20 14.375 20 16.25 18.125 16.25H6.875C6.875 16.25 5 16.25 5 14.375V8.75C5 8.75 5 6.875 6.875 6.875Z" fill="#EDA436"/>
</svg>
