<svg width="167" height="42" viewBox="0 0 167 42" fill="none" xmlns="http://www.w3.org/2000/svg">
<circle cx="21" cy="21" r="21" fill="#E2DBF0"/>
<circle cx="21" cy="21" r="15" fill="#6F4095"/>
<path fill-rule="evenodd" clip-rule="evenodd" d="M9 23.3429V20.6L20.9997 27.4571L25.7998 24.7143V27.4571L20.9997 30.2L9 23.3429ZM16.1996 19.2286L20.9997 16.4857L33 23.3429V26.0857L25.7998 21.9714L20.9997 24.7143L16.1996 21.9714L9 17.8571V15.1143L16.1996 19.2286ZM18.5997 20.6L20.9997 21.9714L23.3998 20.6L20.9997 19.2286L18.5997 20.6ZM33 17.8571V20.6L20.9997 13.7429L16.1996 16.4857V13.7429L20.9997 11L33 17.8571Z" fill="#E2DBF0"/>
<path d="M63.6426 20.7246C63.6426 23.0749 62.972 24.875 61.6309 26.125C60.2962 27.375 58.3659 28 55.8398 28H51.7969V13.7227H56.2793C58.61 13.7227 60.4199 14.3379 61.709 15.5684C62.998 16.7988 63.6426 18.5176 63.6426 20.7246ZM60.498 20.8027C60.498 17.7363 59.1439 16.2031 56.4355 16.2031H54.8242V25.5H56.123C59.0397 25.5 60.498 23.9342 60.498 20.8027ZM66.2402 14.2598C66.2402 13.2897 66.7806 12.8047 67.8613 12.8047C68.9421 12.8047 69.4824 13.2897 69.4824 14.2598C69.4824 14.722 69.3457 15.0833 69.0723 15.3438C68.8053 15.5977 68.4017 15.7246 67.8613 15.7246C66.7806 15.7246 66.2402 15.2363 66.2402 14.2598ZM69.3457 28H66.3672V17.082H69.3457V28ZM80.0977 24.7578C80.0977 25.8776 79.707 26.7305 78.9258 27.3164C78.151 27.9023 76.9889 28.1953 75.4395 28.1953C74.6452 28.1953 73.9681 28.14 73.4082 28.0293C72.8483 27.9251 72.3242 27.7689 71.8359 27.5605V25.0996C72.3893 25.36 73.0111 25.5781 73.7012 25.7539C74.3978 25.9297 75.0098 26.0176 75.5371 26.0176C76.6178 26.0176 77.1582 25.7051 77.1582 25.0801C77.1582 24.8457 77.0866 24.6569 76.9434 24.5137C76.8001 24.3639 76.5527 24.1979 76.2012 24.0156C75.8496 23.8268 75.3809 23.6087 74.7949 23.3613C73.9551 23.0098 73.3366 22.6842 72.9395 22.3848C72.5488 22.0853 72.2624 21.7435 72.0801 21.3594C71.9043 20.9688 71.8164 20.4902 71.8164 19.9238C71.8164 18.9538 72.1908 18.2051 72.9395 17.6777C73.6947 17.1439 74.7624 16.877 76.1426 16.877C77.4577 16.877 78.737 17.1634 79.9805 17.7363L79.082 19.8848C78.5352 19.6504 78.0241 19.4583 77.5488 19.3086C77.0736 19.1589 76.5885 19.084 76.0938 19.084C75.2148 19.084 74.7754 19.3216 74.7754 19.7969C74.7754 20.0638 74.9154 20.2949 75.1953 20.4902C75.4818 20.6855 76.1035 20.9753 77.0605 21.3594C77.9134 21.7044 78.5384 22.0267 78.9355 22.3262C79.3327 22.6257 79.6257 22.9707 79.8145 23.3613C80.0033 23.752 80.0977 24.2174 80.0977 24.7578ZM88.418 28.1953C87.1354 28.1953 86.1296 27.7298 85.4004 26.7988H85.2441C85.3483 27.7103 85.4004 28.2376 85.4004 28.3809V32.8047H82.4219V17.082H84.8438L85.2637 18.498H85.4004C86.097 17.4173 87.1289 16.877 88.4961 16.877C89.7852 16.877 90.7943 17.375 91.5234 18.3711C92.2526 19.3672 92.6172 20.7507 92.6172 22.5215C92.6172 23.6868 92.4447 24.6992 92.0996 25.5586C91.7611 26.418 91.276 27.0723 90.6445 27.5215C90.013 27.9707 89.2708 28.1953 88.418 28.1953ZM87.5391 19.2598C86.8034 19.2598 86.2663 19.4876 85.9277 19.9434C85.5892 20.3926 85.4134 21.138 85.4004 22.1797V22.502C85.4004 23.6738 85.5729 24.5137 85.918 25.0215C86.2695 25.5293 86.8229 25.7832 87.5781 25.7832C88.9128 25.7832 89.5801 24.6829 89.5801 22.4824C89.5801 21.4082 89.4141 20.6042 89.082 20.0703C88.7565 19.5299 88.2422 19.2598 87.5391 19.2598ZM98.0566 28H95.0781V12.8047H98.0566V28ZM108.125 28L107.549 26.5156H107.471C106.969 27.1471 106.452 27.5866 105.918 27.834C105.391 28.0749 104.701 28.1953 103.848 28.1953C102.799 28.1953 101.973 27.8958 101.367 27.2969C100.768 26.6979 100.469 25.8451 100.469 24.7383C100.469 23.5794 100.872 22.7266 101.68 22.1797C102.493 21.6263 103.717 21.3203 105.352 21.2617L107.246 21.2031V20.7246C107.246 19.6178 106.68 19.0645 105.547 19.0645C104.674 19.0645 103.649 19.3281 102.471 19.8555L101.484 17.8438C102.741 17.1862 104.134 16.8574 105.664 16.8574C107.129 16.8574 108.252 17.1764 109.033 17.8145C109.814 18.4525 110.205 19.4225 110.205 20.7246V28H108.125ZM107.246 22.9414L106.094 22.9805C105.228 23.0065 104.583 23.1628 104.16 23.4492C103.737 23.7357 103.525 24.1719 103.525 24.7578C103.525 25.5977 104.007 26.0176 104.971 26.0176C105.661 26.0176 106.211 25.819 106.621 25.4219C107.038 25.0247 107.246 24.4974 107.246 23.8398V22.9414ZM111.719 17.082H114.98L117.041 23.2246C117.217 23.7585 117.337 24.39 117.402 25.1191H117.461C117.533 24.4486 117.673 23.8171 117.881 23.2246L119.902 17.082H123.096L118.477 29.3965C118.053 30.5358 117.448 31.3887 116.66 31.9551C115.879 32.5215 114.964 32.8047 113.916 32.8047C113.402 32.8047 112.897 32.7493 112.402 32.6387V30.2754C112.76 30.36 113.151 30.4023 113.574 30.4023C114.102 30.4023 114.561 30.2396 114.951 29.9141C115.348 29.5951 115.658 29.11 115.879 28.459L116.055 27.9219L111.719 17.082ZM138.838 28L137.803 24.6016H132.598L131.562 28H128.301L133.34 13.6641H137.041L142.1 28H138.838ZM137.08 22.0625C136.123 18.9831 135.583 17.2415 135.459 16.8379C135.342 16.4342 135.257 16.1152 135.205 15.8809C134.99 16.7142 134.375 18.7747 133.359 22.0625H137.08ZM149.668 28.1953C148.385 28.1953 147.38 27.7298 146.65 26.7988H146.494C146.598 27.7103 146.65 28.2376 146.65 28.3809V32.8047H143.672V17.082H146.094L146.514 18.498H146.65C147.347 17.4173 148.379 16.877 149.746 16.877C151.035 16.877 152.044 17.375 152.773 18.3711C153.503 19.3672 153.867 20.7507 153.867 22.5215C153.867 23.6868 153.695 24.6992 153.35 25.5586C153.011 26.418 152.526 27.0723 151.895 27.5215C151.263 27.9707 150.521 28.1953 149.668 28.1953ZM148.789 19.2598C148.053 19.2598 147.516 19.4876 147.178 19.9434C146.839 20.3926 146.663 21.138 146.65 22.1797V22.502C146.65 23.6738 146.823 24.5137 147.168 25.0215C147.52 25.5293 148.073 25.7832 148.828 25.7832C150.163 25.7832 150.83 24.6829 150.83 22.4824C150.83 21.4082 150.664 20.6042 150.332 20.0703C150.007 19.5299 149.492 19.2598 148.789 19.2598ZM162.324 28.1953C161.042 28.1953 160.036 27.7298 159.307 26.7988H159.15C159.255 27.7103 159.307 28.2376 159.307 28.3809V32.8047H156.328V17.082H158.75L159.17 18.498H159.307C160.003 17.4173 161.035 16.877 162.402 16.877C163.691 16.877 164.701 17.375 165.43 18.3711C166.159 19.3672 166.523 20.7507 166.523 22.5215C166.523 23.6868 166.351 24.6992 166.006 25.5586C165.667 26.418 165.182 27.0723 164.551 27.5215C163.919 27.9707 163.177 28.1953 162.324 28.1953ZM161.445 19.2598C160.71 19.2598 160.173 19.4876 159.834 19.9434C159.495 20.3926 159.32 21.138 159.307 22.1797V22.502C159.307 23.6738 159.479 24.5137 159.824 25.0215C160.176 25.5293 160.729 25.7832 161.484 25.7832C162.819 25.7832 163.486 24.6829 163.486 22.4824C163.486 21.4082 163.32 20.6042 162.988 20.0703C162.663 19.5299 162.148 19.2598 161.445 19.2598Z" fill="#6F4095"/>
</svg>
