<svg width="73" height="73" viewBox="0 0 73 73" fill="none" xmlns="http://www.w3.org/2000/svg">
<path d="M59.402 21.8126H33.0647L27.8259 15.5862C27.6496 15.3743 27.3856 15.2555 27.1102 15.2641H5.86147C2.61726 15.2877 0 17.9243 0 21.1685V59.4649C0.00393627 62.7202 2.64196 65.3582 5.89725 65.3621H59.402C62.6573 65.3582 65.2953 62.7202 65.2992 59.4649V27.7099C65.2953 24.4546 62.6573 21.8166 59.402 21.8126Z" fill="#1CAA9F"/>
<path d="M67.1385 14.1845H40.7941L35.5553 7.95799C35.3791 7.74615 35.115 7.62735 34.8396 7.63593H13.598C10.6544 7.64076 8.16527 9.81538 7.7652 12.7316H27.1388C28.1547 12.7291 29.1193 13.1775 29.7725 13.9554L34.2456 19.273H59.402C64.0548 19.2809 67.8249 23.0509 67.8327 27.7038V57.6767C70.7828 57.3087 72.9977 54.8025 73 51.8296V20.0746C72.9923 16.8359 70.377 14.2081 67.1385 14.1845Z" fill="#00847A"/>
</svg>
