<svg width="89" height="89" viewBox="0 0 89 89" fill="none" xmlns="http://www.w3.org/2000/svg">
<path d="M44.4991 7.41602C22.8485 7.41602 5.23438 25.0302 5.23438 46.6807C5.23438 68.3313 22.8485 85.9454 44.4991 85.9454C66.1496 85.9454 83.7638 68.3313 83.7638 46.6807C83.7638 25.0302 66.1496 7.41602 44.4991 7.41602ZM44.4991 78.0925C27.1794 78.0925 13.0873 64.0004 13.0873 46.6807C13.0873 29.3611 27.1794 15.269 44.4991 15.269C61.8187 15.269 75.9109 29.3611 75.9109 46.6807C75.9109 64.0004 61.8187 78.0925 44.4991 78.0925Z" fill="#00847A"/>
<path d="M39.9374 51.044L31.4119 42.5334L26.1758 47.7844L39.9448 61.5238L64.8129 36.6557L59.5693 31.4121L39.9374 51.044Z" fill="#00847A"/>
</svg>
