<svg width="78" height="78" viewBox="0 0 78 78" fill="none" xmlns="http://www.w3.org/2000/svg">
<g filter="url(#filter3_d)">
<rect x="8" y="4" width="62" height="62" rx="13" fill="url(#paint3_linear)"/>
</g>
<path d="M51.596 26.0954C51.1182 25.6176 50.3681 25.5471 49.8096 25.9277C47.7054 27.362 37.1512 34.574 36.0169 35.7082C34.3721 37.3532 34.3721 40.0295 36.0169 41.6745C36.8394 42.4969 37.9198 42.9081 39.0001 42.9081C40.0804 42.9081 41.1607 42.4969 41.9832 41.6745C43.1175 40.5402 50.3294 29.986 51.7637 27.8819C52.1442 27.3234 52.0738 26.5733 51.596 26.0954ZM39.9944 39.6857C39.4462 40.2341 38.554 40.2341 38.0057 39.6857C37.4574 39.1375 37.4574 38.2456 38.0055 37.6973C38.4462 37.2617 41.4427 35.1247 45.1294 32.562C42.5668 36.2488 40.4298 39.2451 39.9944 39.6857Z" fill="#F5F8F7"/>
<path d="M27.485 45.2321L25.749 46.0789C24.4787 43.8119 23.8125 41.2816 23.8125 38.6913C23.8125 36.7935 24.1624 34.9759 24.8011 33.2996L26.7903 34.2537C26.9865 34.3478 27.1935 34.3924 27.3975 34.3924C27.9216 34.3924 28.4246 34.0981 28.6665 33.594C29.0023 32.8937 28.707 32.0537 28.0066 31.7178L26.0427 30.7758C28.4837 26.7947 32.7072 24.0191 37.5938 23.5684V25.6835C37.5938 26.4601 38.2234 27.0897 39.0001 27.0897C39.7767 27.0897 40.4063 26.4601 40.4063 25.6835V23.5673C42.0817 23.7198 43.7029 24.1465 45.2418 24.8412C45.9495 25.1608 46.7825 24.8458 47.102 24.1381C47.4216 23.4302 47.1068 22.5974 46.3989 22.2778C44.0669 21.2252 41.5776 20.6913 39 20.6913C34.192 20.6913 29.6719 22.5636 26.272 25.9634C22.8724 29.3632 21 33.8834 21 38.6913C21 42.2442 22.0545 45.6997 24.0497 48.6838C24.3184 49.0856 24.7627 49.3086 25.2196 49.3086C25.4273 49.3086 25.6377 49.2626 25.8353 49.1662L28.7181 47.7599C29.4162 47.4194 29.706 46.5775 29.3655 45.8795C29.025 45.1815 28.1831 44.8917 27.485 45.2321Z" fill="#F5F8F7"/>
<path d="M55.4135 31.2925C55.094 30.5847 54.2613 30.2697 53.5532 30.5894C52.8454 30.9089 52.5306 31.7418 52.8501 32.4496C53.7376 34.4154 54.1875 36.5154 54.1875 38.6913C54.1875 41.2854 53.5192 43.8199 52.2452 46.0895L50.4327 45.2264C49.7316 44.8926 48.8925 45.1902 48.5585 45.8915C48.2246 46.5926 48.5223 47.4318 49.2236 47.7657L52.1767 49.172C52.371 49.2644 52.5769 49.3087 52.7805 49.3087C53.2376 49.3087 53.6819 49.0854 53.9503 48.6839C55.9455 45.6997 57 42.2442 57 38.6913C57 36.1138 56.4662 33.6244 55.4135 31.2925Z" fill="#F5F8F7"/>
<defs>
<filter id="filter3_d" x="0" y="0" width="78" height="78" filterUnits="userSpaceOnUse" color-interpolation-filters="sRGB">
<feFlood flood-opacity="0" result="BackgroundImageFix"/>
<feColorMatrix in="SourceAlpha" type="matrix" values="0 0 0 0 0 0 0 0 0 0 0 0 0 0 0 0 0 0 127 0"/>
<feOffset dy="4"/>
<feGaussianBlur stdDeviation="4"/>
<feColorMatrix type="matrix" values="0 0 0 0 0.356863 0 0 0 0 0.360784 0 0 0 0 0.356863 0 0 0 0.35 0"/>
<feBlend mode="normal" in2="BackgroundImageFix" result="effect1_dropShadow"/>
<feBlend mode="normal" in="SourceGraphic" in2="effect1_dropShadow" result="shape"/>
</filter>
<linearGradient id="paint3_linear" x1="39.6889" y1="4" x2="39.6889" y2="66" gradientUnits="userSpaceOnUse">
<stop stop-color="#9400D3"/>
<stop offset="1" stop-color="#4B0082"/>
</linearGradient>
</defs>
</svg>
