<svg width="20" height="23" viewBox="0 0 20 23" fill="none" xmlns="http://www.w3.org/2000/svg">
<path d="M4.86374 19.1741L3.56173 19.8092C2.60903 18.1089 2.10938 16.2112 2.10938 14.2685C2.10938 12.8451 2.37183 11.4819 2.85082 10.2247L4.34273 10.9403C4.48986 11.0108 4.64516 11.0443 4.79814 11.0443C5.19117 11.0443 5.56849 10.8236 5.74984 10.4455C6.0017 9.92028 5.78021 9.29026 5.25498 9.03835L3.782 8.33182C5.61278 5.346 8.78038 3.26431 12.4454 2.92628V4.51258C12.4454 5.09509 12.9175 5.56727 13.5001 5.56727C14.0826 5.56727 14.5547 5.09509 14.5547 4.51258V2.92549C15.8113 3.03987 17.0271 3.35986 18.1813 3.88088C18.7121 4.12055 19.3369 3.88436 19.5765 3.35359C19.8162 2.82266 19.5801 2.19802 19.0492 1.95834C17.3002 1.16885 15.4332 0.768494 13.5 0.768494C9.89402 0.768494 6.50389 2.1727 3.95402 4.72252C1.40426 7.27238 0 10.6625 0 14.2685C0 16.9332 0.79091 19.5247 2.28725 21.7628C2.4888 22.0642 2.82203 22.2314 3.1647 22.2314C3.32047 22.2314 3.47825 22.1969 3.62649 22.1246L5.7886 21.0699C6.31215 20.8145 6.52952 20.1831 6.27413 19.6596C6.01873 19.1361 5.38729 18.9188 4.86374 19.1741Z" fill="#AAB7BD"/>
</svg>
