<svg width="27" height="19" viewBox="0 0 27 19" fill="none" xmlns="http://www.w3.org/2000/svg">
<path d="M21.7688 7.295C21.0037 3.41375 17.595 0.5 13.5 0.5C10.2487 0.5 7.425 2.345 6.01875 5.045C2.6325 5.405 0 8.27375 0 11.75C0 15.4738 3.02625 18.5 6.75 18.5H21.375C24.48 18.5 27 15.98 27 12.875C27 9.905 24.6938 7.4975 21.7688 7.295ZM21.375 16.25H6.75C4.26375 16.25 2.25 14.2362 2.25 11.75C2.25 9.26375 4.26375 7.25 6.75 7.25H7.54875C8.29125 4.65125 10.665 2.75 13.5 2.75C16.92 2.75 19.6875 5.5175 19.6875 8.9375V9.5H21.375C23.2425 9.5 24.75 11.0075 24.75 12.875C24.75 14.7425 23.2425 16.25 21.375 16.25Z" fill="#AAB7BD"/>
</svg>
