<svg width="21" height="21" viewBox="0 0 21 21" fill="none" xmlns="http://www.w3.org/2000/svg">
<path d="M14.4375 12.75H13.5431L13.2338 12.4406C14.3363 11.1638 15 9.50438 15 7.6875C15 3.64875 11.7262 0.375 7.6875 0.375C3.64875 0.375 0.375 3.64875 0.375 7.6875C0.375 11.7262 3.64875 15 7.6875 15C9.50438 15 11.1638 14.3363 12.4406 13.2394L12.75 13.5487V14.4375L18.375 20.0513L20.0513 18.375L14.4375 12.75ZM7.6875 12.75C4.89188 12.75 2.625 10.4831 2.625 7.6875C2.625 4.89188 4.89188 2.625 7.6875 2.625C10.4831 2.625 12.75 4.89188 12.75 7.6875C12.75 10.4831 10.4831 12.75 7.6875 12.75Z" fill="#AAB7BD"/>
</svg>
