<svg width="7" height="15" viewBox="0 0 7 15" fill="none" xmlns="http://www.w3.org/2000/svg">
<path d="M5.81015 0.719326C5.57052 0.188449 4.94599 -0.0478012 4.4149 0.191982C3.88402 0.43166 3.64793 1.0563 3.88761 1.58718C4.55322 3.06152 4.89067 4.63654 4.89067 6.26846C4.89067 8.21404 4.38938 10.1149 3.43388 11.8171L2.07455 11.1697C1.54873 10.9194 0.919348 11.1426 0.66886 11.6686C0.418424 12.1944 0.641755 12.8238 1.16767 13.0743L3.38252 14.1289C3.52822 14.1983 3.68268 14.2315 3.8354 14.2315C4.17818 14.2315 4.51146 14.064 4.71274 13.7629C6.20914 11.5247 7.00005 8.93313 7.00005 6.26846C7.00005 4.33527 6.59969 2.46826 5.81015 0.719326Z" fill="#AAB7BD"/>
</svg>
