<svg width="78" height="78" viewBox="0 0 78 78" fill="none" xmlns="http://www.w3.org/2000/svg">
<g filter="url(#filter6_d)">
<rect x="8" y="4" width="62" height="62" rx="13" fill="url(#paint6_linear)"/>
</g>
<path d="M45.0114 38.6101H43.7387L43.2985 38.1698C44.8674 36.3528 45.8119 33.9914 45.8119 31.4059C45.8119 25.6587 41.1532 21 35.4059 21C29.6587 21 25 25.6587 25 31.4059C25 37.1532 29.6587 41.8119 35.4059 41.8119C37.9914 41.8119 40.3528 40.8674 42.1698 39.3065L42.6101 39.7467V41.0114L50.6146 49L53 46.6146L45.0114 38.6101ZM35.4059 38.6101C31.4277 38.6101 28.2018 35.3842 28.2018 31.4059C28.2018 27.4277 31.4277 24.2018 35.4059 24.2018C39.3842 24.2018 42.6101 27.4277 42.6101 31.4059C42.6101 35.3842 39.3842 38.6101 35.4059 38.6101Z" fill="#F5F8F7"/>
<defs>
<filter id="filter6_d" x="0" y="0" width="78" height="78" filterUnits="userSpaceOnUse" color-interpolation-filters="sRGB">
<feFlood flood-opacity="0" result="BackgroundImageFix"/>
<feColorMatrix in="SourceAlpha" type="matrix" values="0 0 0 0 0 0 0 0 0 0 0 0 0 0 0 0 0 0 127 0"/>
<feOffset dy="4"/>
<feGaussianBlur stdDeviation="4"/>
<feColorMatrix type="matrix" values="0 0 0 0 0.356863 0 0 0 0 0.360784 0 0 0 0 0.356863 0 0 0 0.35 0"/>
<feBlend mode="normal" in2="BackgroundImageFix" result="effect1_dropShadow"/>
<feBlend mode="normal" in="SourceGraphic" in2="effect1_dropShadow" result="shape"/>
</filter>
<linearGradient id="paint6_linear" x1="39.6889" y1="4" x2="39.6889" y2="66" gradientUnits="userSpaceOnUse">
<stop stop-color="#56B8E8"/>
<stop offset="1" stop-color="#1567AB"/>
</linearGradient>
</defs>
</svg>
