<svg width="148" height="148" viewBox="0 0 148 148" fill="none" xmlns="http://www.w3.org/2000/svg">
<g clip-path="url(#clip0x)">
<path d="M26.0996 145.087H24.2832V138.032H21.957V136.521H28.4258V138.032H26.0996V145.087ZM35.6504 145.087H33.8633V141.261C33.8633 140.315 33.5117 139.843 32.8086 139.843C32.3086 139.843 31.9473 140.013 31.7246 140.353C31.502 140.692 31.3906 141.243 31.3906 142.005V145.087H29.6035V135.97H31.3906V137.827C31.3906 137.972 31.377 138.312 31.3496 138.847L31.3086 139.374H31.4023C31.8008 138.733 32.4336 138.413 33.3008 138.413C34.0703 138.413 34.6543 138.62 35.0527 139.034C35.4512 139.448 35.6504 140.042 35.6504 140.815V145.087ZM37.4141 136.843C37.4141 136.261 37.7383 135.97 38.3867 135.97C39.0352 135.97 39.3594 136.261 39.3594 136.843C39.3594 137.12 39.2773 137.337 39.1133 137.493C38.9531 137.646 38.7109 137.722 38.3867 137.722C37.7383 137.722 37.4141 137.429 37.4141 136.843ZM39.2773 145.087H37.4902V138.536H39.2773V145.087ZM44.8145 138.413C45.0566 138.413 45.2578 138.431 45.418 138.466L45.2832 140.142C45.1387 140.103 44.9629 140.083 44.7559 140.083C44.1855 140.083 43.7402 140.229 43.4199 140.522C43.1035 140.815 42.9453 141.226 42.9453 141.753V145.087H41.1582V138.536H42.5117L42.7754 139.638H42.8633C43.0664 139.271 43.3398 138.976 43.6836 138.753C44.0312 138.526 44.4082 138.413 44.8145 138.413ZM48.6816 145.204C47.9121 145.204 47.3066 144.905 46.8652 144.308C46.4277 143.71 46.209 142.882 46.209 141.823C46.209 140.749 46.4316 139.913 46.877 139.315C47.3262 138.714 47.9434 138.413 48.7285 138.413C49.5527 138.413 50.1816 138.733 50.6152 139.374H50.6738C50.584 138.886 50.5391 138.45 50.5391 138.067V135.97H52.332V145.087H50.9609L50.6152 144.237H50.5391C50.1328 144.882 49.5137 145.204 48.6816 145.204ZM49.3086 143.78C49.7656 143.78 50.0996 143.647 50.3105 143.382C50.5254 143.116 50.6426 142.665 50.6621 142.028V141.835C50.6621 141.132 50.5527 140.628 50.334 140.323C50.1191 140.019 49.7676 139.866 49.2793 139.866C48.8809 139.866 48.5703 140.036 48.3477 140.376C48.1289 140.712 48.0195 141.202 48.0195 141.847C48.0195 142.491 48.1309 142.976 48.3535 143.3C48.5762 143.62 48.8945 143.78 49.3086 143.78ZM60.916 145.204C60.1465 145.204 59.543 144.925 59.1055 144.366H59.0117C59.0742 144.913 59.1055 145.229 59.1055 145.315V147.97H57.3184V138.536H58.7715L59.0234 139.386H59.1055C59.5234 138.737 60.1426 138.413 60.9629 138.413C61.7363 138.413 62.3418 138.712 62.7793 139.31C63.2168 139.907 63.4355 140.737 63.4355 141.8C63.4355 142.499 63.332 143.106 63.125 143.622C62.9219 144.138 62.6309 144.53 62.252 144.8C61.873 145.069 61.4277 145.204 60.916 145.204ZM60.3887 139.843C59.9473 139.843 59.625 139.979 59.4219 140.253C59.2188 140.522 59.1133 140.97 59.1055 141.595V141.788C59.1055 142.491 59.209 142.995 59.416 143.3C59.627 143.604 59.959 143.757 60.4121 143.757C61.2129 143.757 61.6133 143.097 61.6133 141.776C61.6133 141.132 61.5137 140.649 61.3145 140.329C61.1191 140.005 60.8105 139.843 60.3887 139.843ZM69.0723 145.087L68.7266 144.196H68.6797C68.3789 144.575 68.0684 144.839 67.748 144.987C67.4316 145.132 67.0176 145.204 66.5059 145.204C65.877 145.204 65.3809 145.024 65.0176 144.665C64.6582 144.306 64.4785 143.794 64.4785 143.13C64.4785 142.435 64.7207 141.923 65.2051 141.595C65.6934 141.263 66.4277 141.079 67.4082 141.044L68.5449 141.009V140.722C68.5449 140.058 68.2051 139.726 67.5254 139.726C67.002 139.726 66.3867 139.884 65.6797 140.2L65.0879 138.993C65.8418 138.599 66.6777 138.401 67.5957 138.401C68.4746 138.401 69.1484 138.593 69.6172 138.976C70.0859 139.358 70.3203 139.94 70.3203 140.722V145.087H69.0723ZM68.5449 142.052L67.8535 142.075C67.334 142.091 66.9473 142.185 66.6934 142.356C66.4395 142.528 66.3125 142.79 66.3125 143.142C66.3125 143.646 66.6016 143.897 67.1797 143.897C67.5938 143.897 67.9238 143.778 68.1699 143.54C68.4199 143.302 68.5449 142.985 68.5449 142.591V142.052ZM75.8223 138.413C76.0645 138.413 76.2656 138.431 76.4258 138.466L76.291 140.142C76.1465 140.103 75.9707 140.083 75.7637 140.083C75.1934 140.083 74.748 140.229 74.4277 140.522C74.1113 140.815 73.9531 141.226 73.9531 141.753V145.087H72.166V138.536H73.5195L73.7832 139.638H73.8711C74.0742 139.271 74.3477 138.976 74.6914 138.753C75.0391 138.526 75.416 138.413 75.8223 138.413ZM80.375 143.78C80.6875 143.78 81.0625 143.712 81.5 143.575V144.905C81.0547 145.104 80.5078 145.204 79.8594 145.204C79.1445 145.204 78.623 145.024 78.2949 144.665C77.9707 144.302 77.8086 143.759 77.8086 143.036V139.878H76.9531V139.122L77.9375 138.524L78.4531 137.142H79.5957V138.536H81.4297V139.878H79.5957V143.036C79.5957 143.29 79.666 143.478 79.8066 143.599C79.9512 143.72 80.1406 143.78 80.375 143.78ZM81.8926 138.536H83.8496L85.0859 142.222C85.1914 142.542 85.2637 142.921 85.3027 143.358H85.3379C85.3809 142.956 85.4648 142.577 85.5898 142.222L86.8027 138.536H88.7188L85.9473 145.925C85.6934 146.608 85.3301 147.12 84.8574 147.46C84.3887 147.8 83.8398 147.97 83.2109 147.97C82.9023 147.97 82.5996 147.937 82.3027 147.87V146.452C82.5176 146.503 82.752 146.528 83.0059 146.528C83.3223 146.528 83.5977 146.431 83.832 146.235C84.0703 146.044 84.2559 145.753 84.3887 145.362L84.4941 145.04L81.8926 138.536ZM96.9395 145.087L96.5938 144.196H96.5469C96.2461 144.575 95.9355 144.839 95.6152 144.987C95.2988 145.132 94.8848 145.204 94.373 145.204C93.7441 145.204 93.248 145.024 92.8848 144.665C92.5254 144.306 92.3457 143.794 92.3457 143.13C92.3457 142.435 92.5879 141.923 93.0723 141.595C93.5605 141.263 94.2949 141.079 95.2754 141.044L96.4121 141.009V140.722C96.4121 140.058 96.0723 139.726 95.3926 139.726C94.8691 139.726 94.2539 139.884 93.5469 140.2L92.9551 138.993C93.709 138.599 94.5449 138.401 95.4629 138.401C96.3418 138.401 97.0156 138.593 97.4844 138.976C97.9531 139.358 98.1875 139.94 98.1875 140.722V145.087H96.9395ZM96.4121 142.052L95.7207 142.075C95.2012 142.091 94.8145 142.185 94.5605 142.356C94.3066 142.528 94.1797 142.79 94.1797 143.142C94.1797 143.646 94.4688 143.897 95.0469 143.897C95.4609 143.897 95.791 143.778 96.0371 143.54C96.2871 143.302 96.4121 142.985 96.4121 142.591V142.052ZM103.631 145.204C102.861 145.204 102.258 144.925 101.82 144.366H101.727C101.789 144.913 101.82 145.229 101.82 145.315V147.97H100.033V138.536H101.486L101.738 139.386H101.82C102.238 138.737 102.857 138.413 103.678 138.413C104.451 138.413 105.057 138.712 105.494 139.31C105.932 139.907 106.15 140.737 106.15 141.8C106.15 142.499 106.047 143.106 105.84 143.622C105.637 144.138 105.346 144.53 104.967 144.8C104.588 145.069 104.143 145.204 103.631 145.204ZM103.104 139.843C102.662 139.843 102.34 139.979 102.137 140.253C101.934 140.522 101.828 140.97 101.82 141.595V141.788C101.82 142.491 101.924 142.995 102.131 143.3C102.342 143.604 102.674 143.757 103.127 143.757C103.928 143.757 104.328 143.097 104.328 141.776C104.328 141.132 104.229 140.649 104.029 140.329C103.834 140.005 103.525 139.843 103.104 139.843ZM111.225 145.204C110.455 145.204 109.852 144.925 109.414 144.366H109.32C109.383 144.913 109.414 145.229 109.414 145.315V147.97H107.627V138.536H109.08L109.332 139.386H109.414C109.832 138.737 110.451 138.413 111.271 138.413C112.045 138.413 112.65 138.712 113.088 139.31C113.525 139.907 113.744 140.737 113.744 141.8C113.744 142.499 113.641 143.106 113.434 143.622C113.23 144.138 112.939 144.53 112.561 144.8C112.182 145.069 111.736 145.204 111.225 145.204ZM110.697 139.843C110.256 139.843 109.934 139.979 109.73 140.253C109.527 140.522 109.422 140.97 109.414 141.595V141.788C109.414 142.491 109.518 142.995 109.725 143.3C109.936 143.604 110.268 143.757 110.721 143.757C111.521 143.757 111.922 143.097 111.922 141.776C111.922 141.132 111.822 140.649 111.623 140.329C111.428 140.005 111.119 139.843 110.697 139.843Z" fill="#F5F8F7"/>
<g filter="url(#filter0_dx)">
<rect x="8" y="3" width="124" height="124" rx="26" fill="url(#paint0x_linear)"/>
</g>
<path fill-rule="evenodd" clip-rule="evenodd" d="M95.9258 37.4155H44.0739C43.1579 37.4155 42.4153 38.1581 42.4153 39.0741V90.9259C42.4153 91.842 43.1579 92.5846 44.0739 92.5846H49.8224L80.7494 61.6576L84.8144 57.5926L88.8794 61.6576L97.5844 70.3625V39.0741C97.5844 38.1581 96.8418 37.4155 95.9258 37.4155ZM97.5844 78.2668L97.4202 78.3284L84.8144 65.7226L57.9525 92.5846H95.9258C96.8418 92.5846 97.5844 91.842 97.5844 90.9259V78.2668ZM44.0739 31.6667H95.9258C100.017 31.6667 103.333 34.9831 103.333 39.0741V90.9259C103.333 95.0169 100.017 98.3334 95.9258 98.3334H44.0739C39.9829 98.3334 36.6665 95.0169 36.6665 90.9259V39.0741C36.6665 34.9831 39.9829 31.6667 44.0739 31.6667ZM67.1916 52.037C67.1916 57.6453 62.6452 62.1916 57.037 62.1916C51.4288 62.1916 46.8824 57.6453 46.8824 52.037C46.8824 46.4288 51.4288 41.8825 57.037 41.8825C62.6452 41.8825 67.1916 46.4288 67.1916 52.037ZM62.5925 52.037C62.5925 55.1053 60.1052 57.5926 57.037 57.5926C53.9687 57.5926 51.4814 55.1053 51.4814 52.037C51.4814 48.9688 53.9687 46.4815 57.037 46.4815C60.1052 46.4815 62.5925 48.9688 62.5925 52.037Z" fill="#F5F8F7"/>
</g>
<defs>
<filter id="filter0_dx" x="0" y="-1" width="140" height="140" filterUnits="userSpaceOnUse" color-interpolation-filters="sRGB">
<feFlood flood-opacity="0" result="BackgroundImageFix"/>
<feColorMatrix in="SourceAlpha" type="matrix" values="0 0 0 0 0 0 0 0 0 0 0 0 0 0 0 0 0 0 127 0"/>
<feOffset dy="4"/>
<feGaussianBlur stdDeviation="4"/>
<feColorMatrix type="matrix" values="0 0 0 0 0.356863 0 0 0 0 0.360784 0 0 0 0 0.356863 0 0 0 0.35 0"/>
<feBlend mode="normal" in2="BackgroundImageFix" result="effect1_dropShadow"/>
<feBlend mode="normal" in="SourceGraphic" in2="effect1_dropShadow" result="shape"/>
</filter>
<linearGradient id="paint0x_linear" x1="71.3778" y1="3" x2="71.3778" y2="127" gradientUnits="userSpaceOnUse">
<stop stop-color="#56B8E8"/>
<stop offset="1" stop-color="#1567AB"/>
</linearGradient>
<clipPath id="clip0x">
<rect width="136" height="148" fill="white" transform="translate(1)"/>
</clipPath>
</defs>
</svg>
